<?xml version="1.0" encoding="UTF-8"?>
<svg version="1.1" xmlns="http://www.w3.org/2000/svg" width="120" height="161">
<path d="M0 0 C39.6 0 79.2 0 120 0 C120 53.13 120 106.26 120 161 C80.4 161 40.8 161 0 161 C0 107.87 0 54.74 0 0 Z " fill="#292928" transform="translate(0,0)"/>
<path d="M0 0 C0.66 0 1.32 0 2 0 C2.53571429 7.63392857 2.53571429 7.63392857 -0.0625 11.4375 C-2.80713122 15.67041716 -1.94716174 19.24697015 -1 24 C-0.814375 25.175625 -0.62875 26.35125 -0.4375 27.5625 C-0.2209375 28.7690625 -0.2209375 28.7690625 0 30 C-5.73094051 32.99005592 -10.55611483 33.61258141 -17 33 C-17.66 32.67 -18.32 32.34 -19 32 C-20.54023996 31.93049459 -22.08334988 31.91547643 -23.625 31.9375 C-24.44226563 31.94652344 -25.25953125 31.95554687 -26.1015625 31.96484375 C-26.72804687 31.97644531 -27.35453125 31.98804687 -28 32 C-29.43494114 34.86988227 -29.27621473 37.72925074 -29.42578125 40.90625 C-30 43 -30 43 -32.04296875 44.28125 C-32.68878906 44.5184375 -33.33460937 44.755625 -34 45 C-35.29243536 40.8803623 -36.26252625 37.33168317 -36 33 C-37.2375 33.061875 -38.475 33.12375 -39.75 33.1875 C-43.56396501 33.20760878 -45.04667499 32.44413104 -48 30 C-50.5 29.33333333 -50.5 29.33333333 -53 30 C-56.68828496 33.51753103 -57.4840771 36.24425733 -57.70703125 41.12695312 C-57.72830078 42.20879883 -57.72830078 42.20879883 -57.75 43.3125 C-57.79447266 44.42334961 -57.79447266 44.42334961 -57.83984375 45.55664062 C-57.91005845 47.37052046 -57.95735048 49.18526278 -58 51 C-57.21753906 50.91621094 -56.43507813 50.83242188 -55.62890625 50.74609375 C-54.11103516 50.59333984 -54.11103516 50.59333984 -52.5625 50.4375 C-51.04849609 50.28087891 -51.04849609 50.28087891 -49.50390625 50.12109375 C-48.67761719 50.08113281 -47.85132813 50.04117188 -47 50 C-46.67 50.33 -46.34 50.66 -46 51 C-41.42543632 51.29255285 -36.84791464 51.31421324 -32.26489258 51.35009766 C-30.7256753 51.36656678 -29.1865316 51.39373618 -27.64770508 51.43212891 C-18.78083973 51.65215038 -12.25022498 51.73863001 -5 46 C-4.01 46 -3.02 46 -2 46 C-1.83792454 57.03913945 -2.34235269 67.98440762 -3 79 C-6.61109698 80.07356937 -7.67942424 79.71059963 -11 78 C-14.6368085 77.63631915 -16.86269264 78.1408549 -20 80 C-20.33 79.34 -20.66 78.68 -21 78 C-23.80376352 76.87050779 -23.80376352 76.87050779 -27 76 C-28.1446875 75.62875 -28.1446875 75.62875 -29.3125 75.25 C-32.66986309 74.93768715 -35.33439917 75.71242756 -38.5859375 76.51171875 C-42.35554081 77.27417897 -46.18118339 77.52144484 -50 77 C-50.99 76.34 -51.98 75.68 -53 75 C-55.62531524 74.83286431 -55.62531524 74.83286431 -58 75 C-58.6290627 86.28978677 -58.6290627 86.28978677 -56 97 C-54.07193659 97.31655664 -54.07193659 97.31655664 -51.8125 97.375 C-47.2527881 97.77370295 -44.63868475 99.14103341 -41 102 C-38.27889502 104.2465379 -38.27889502 104.2465379 -35.6875 103.875 C-32.84207711 103.10161258 -32.84207711 103.10161258 -30.25 101 C-21.44716427 95.58287032 -7.84212699 97.48582662 2 99 C1.83886719 99.56589844 1.67773438 100.13179688 1.51171875 100.71484375 C0.98613365 103.06192223 0.83282434 105.1601634 0.8125 107.5625 C0.79832031 108.32691406 0.78414063 109.09132813 0.76953125 109.87890625 C0.8676625 112.30153503 0.8676625 112.30153503 3 115 C3.42783066 117.80590236 3.22830702 120.1233315 3 123 C2.01 123.66 1.02 124.32 0 125 C-0.66 125.99 -1.32 126.98 -2 128 C-2.53109375 127.69964844 -3.0621875 127.39929688 -3.609375 127.08984375 C-4.31578125 126.70957031 -5.0221875 126.32929687 -5.75 125.9375 C-6.44609375 125.55464844 -7.1421875 125.17179687 -7.859375 124.77734375 C-10.27768111 123.67338515 -10.27768111 123.67338515 -14 125 C-14 128.63 -14 132.26 -14 136 C-14.99 135.67 -15.98 135.34 -17 135 C-17.94921875 132.71484375 -17.94921875 132.71484375 -18.6875 129.9375 C-18.93886719 129.01839844 -19.19023438 128.09929687 -19.44921875 127.15234375 C-19.63097656 126.44207031 -19.81273438 125.73179688 -20 125 C-22.65404064 123.95614304 -22.65404064 123.95614304 -26 124 C-27.60341691 125.23719915 -27.60341691 125.23719915 -29.125 126.875 C-32.39285681 130.07735411 -34.53425412 130.3302213 -39.0625 130.375 C-43.50761857 130.45652339 -43.50761857 130.45652339 -47.10546875 132.82421875 C-48.57702948 134.82707932 -49.8553055 136.79596103 -51 139 C-54.72879222 138.68038924 -55.85107723 138.15636891 -58.5 135.375 C-60.75026939 132.70477603 -60.75026939 132.70477603 -63.6875 132.9375 C-66.04999423 133.78711523 -66.04999423 133.78711523 -67.109375 135.5859375 C-68.33478348 138.90743942 -68.42594603 142.18705555 -68.5625 145.6875 C-68.87866928 152.87866928 -68.87866928 152.87866928 -70 154 C-73.5 153.6875 -73.5 153.6875 -77 153 C-78.17426264 150.65147472 -78.11508173 149.26225935 -78.09765625 146.6484375 C-78.09443359 145.79765625 -78.09121094 144.946875 -78.08789062 144.0703125 C-78.07532227 142.73613281 -78.07532227 142.73613281 -78.0625 141.375 C-78.05798828 140.4778125 -78.05347656 139.580625 -78.04882812 138.65625 C-78.03702591 136.43743352 -78.02056155 134.21874982 -78 132 C-79.98 131.34 -81.96 130.68 -84 130 C-84.33 131.98 -84.66 133.96 -85 136 C-85.33 136 -85.66 136 -86 136 C-85.85769192 134.58297487 -85.71099254 133.1663904 -85.5625 131.75 C-85.48128906 130.96109375 -85.40007812 130.1721875 -85.31640625 129.359375 C-85 127 -85 127 -84.484375 125.12890625 C-82.26855228 115.390008 -84.16124034 105.82777769 -87.125 96.53515625 C-88.96784067 89.08975087 -87.84445804 83.61408473 -85.4375 76.5625 C-83.43628386 70.23742336 -82.27439772 65.57885869 -84 59 C-84.5053125 58.05511719 -85.010625 57.11023437 -85.53125 56.13671875 C-90.07832837 46.42580403 -86.28551027 34.58357156 -83.77929688 24.72851562 C-82.50304361 19.65622702 -81.71207084 15.2331125 -82 10 C-83.32 10 -84.64 10 -86 10 C-85.64155106 7.40124521 -85.2320982 6.22453162 -83.32250977 4.37719727 C-80.36632893 2.62424698 -78.5109847 2.68380624 -75.08984375 2.77734375 C-73.93419922 2.79603516 -72.77855469 2.81472656 -71.58789062 2.83398438 C-70.38326172 2.86814453 -69.17863281 2.90230469 -67.9375 2.9375 C-60.18019857 3.13705838 -52.93142652 3.10996288 -45.3190918 1.47631836 C-37.59966692 -0.10917463 -30.76510621 1.56904641 -23.29052734 3.57666016 C-16.9611964 5.22389971 -10.54728739 6.44625303 -4.5625 3.0625 C-3.90378906 2.70285156 -3.24507813 2.34320313 -2.56640625 1.97265625 C-1.01705784 1.09295889 -1.01705784 1.09295889 0 0 Z " fill="#74F561" transform="translate(115,1)"/>
<path d="M0 0 C0.66 0 1.32 0 2 0 C2 11.55 2 23.1 2 35 C-25.72 35 -53.44 35 -82 35 C-82.33 33.68 -82.66 32.36 -83 31 C-79.49595163 29.83198388 -77.58912879 30.40181187 -74 31 C-73.01 30.67 -72.02 30.34 -71 30 C-69.18894475 26.37788951 -69.71096005 21.78921987 -69.65820312 17.765625 C-69.57421875 15.625 -69.57421875 15.625 -69 12 C-66.95703125 10.5 -66.95703125 10.5 -65 10 C-64.55269531 10.44472656 -64.10539062 10.88945312 -63.64453125 11.34765625 C-60.0183401 14.96912275 -60.0183401 14.96912275 -55.25 16.0625 C-51.74735898 14.40847507 -50.3617158 12.97211122 -49 9.3125 C-48.34 8.549375 -47.68 7.78625 -47 7 C-44.609375 6.890625 -44.609375 6.890625 -41.75 7.0625 C-37.580968 7.33861218 -37.580968 7.33861218 -33.8984375 5.6484375 C-32.12053693 3.9842029 -32.12053693 3.9842029 -30.6328125 2.21484375 C-30.09398437 1.81394531 -29.55515625 1.41304688 -29 1 C-26.525 1.495 -26.525 1.495 -24 2 C-23.01 5.63 -22.02 9.26 -21 13 C-19.35 13 -17.7 13 -16 13 C-15.67 9.04 -15.34 5.08 -15 1 C-11.1302298 1.77395404 -9.28696976 2.35651512 -6 4 C-5.01 4 -4.02 4 -3 4 C-1.9739266 2.68662604 -0.97272675 1.35335895 0 0 Z " fill="#292929" transform="translate(118,126)"/>
<path d="M0 0 C1.26101208 4.34171248 0.59495127 6.78276049 -0.875 11 C-4.71650514 23.83796505 -7.71927835 43.23520303 -1.50463867 55.55615234 C-0.54418165 57.17550856 0.45751193 58.77019325 1.4609375 60.36328125 C3.95992855 64.64454765 3.14984531 67.40585129 2 72 C-0.4164199 82.33438943 -1.50330701 92.10890805 -1.6875 102.75 C-1.72166016 104.06871094 -1.75582031 105.38742188 -1.79101562 106.74609375 C-1.97186422 114.16457692 -2.04359292 121.57951562 -2 129 C-8.75 128.125 -8.75 128.125 -11 127 C-11.103125 127.61875 -11.20625 128.2375 -11.3125 128.875 C-12 131 -12 131 -15 133 C-15 90.1 -15 47.2 -15 3 C-4.875 -0.375 -4.875 -0.375 0 0 Z " fill="#75F362" transform="translate(15,6)"/>
<path d="M0 0 C0.33 0 0.66 0 1 0 C1.495 2.475 1.495 2.475 2 5 C2.66 5 3.32 5 4 5 C4 24.8 4 44.6 4 65 C2 63 2 63 1.8046875 61.0546875 C1.86979167 59.03645833 1.93489583 57.01822917 2 55 C1.34 55 0.68 55 0 55 C0 57.64 0 60.28 0 63 C-0.33 63 -0.66 63 -1 63 C-1.05447047 61.58376784 -1.09300508 60.16691809 -1.125 58.75 C-1.14820313 57.96109375 -1.17140625 57.1721875 -1.1953125 56.359375 C-0.98160881 53.77783437 -0.206108 52.26197418 1 50 C-2.87493616 49.94165605 -6.74975836 49.90628799 -10.625 49.875 C-12.26662109 49.84986328 -12.26662109 49.84986328 -13.94140625 49.82421875 C-20.94714454 49.78175973 -26.17351411 49.93902071 -32 54.1875 C-35 56 -35 56 -38.0625 56 C-41.38510361 54.8689009 -43.39142059 53.31873725 -46 51 C-48.8693296 49.5653352 -51.7317937 49.67238935 -54.90625 49.4765625 C-57 49 -57 49 -59 46 C-60.41654538 39.58545488 -60.39636921 32.52843408 -60 26 C-59.67 25.67 -59.34 25.34 -59 25 C-52.28 25.72 -52.28 25.72 -51 27 C-46.27866858 27.45316351 -41.84232848 27.07787687 -37.25 25.9375 C-32.08417625 24.68626241 -29.27531612 25.45029478 -24.375 27.5625 C-21.15138512 29.19593103 -21.15138512 29.19593103 -18 29 C-17.505 28.505 -17.505 28.505 -17 28 C-14.65912158 28.27539746 -12.32597511 28.6186926 -10 29 C-8.865625 29.185625 -7.73125 29.37125 -6.5625 29.5625 C-5.716875 29.706875 -4.87125 29.85125 -4 30 C-4 30.66 -4 31.32 -4 32 C-4.99 32 -5.98 32 -7 32 C-7 32.66 -7 33.32 -7 34 C-4.96758273 33.36020151 -4.96758273 33.36020151 -3 32 C-1.54906217 27.22992336 -1.69561216 22.07326321 -1.5 17.125 C-1.26961915 11.3484136 -0.93338161 5.7091842 0 0 Z " fill="#272927" transform="translate(116,50)"/>
<path d="M0 0 C0.33 0 0.66 0 1 0 C1.09796875 0.82242188 1.1959375 1.64484375 1.296875 2.4921875 C2.04570091 8.08256025 2.8375614 13.09477137 5.1875 18.25 C8.33510822 25.59441918 6.30396799 31.20015515 3.9375 38.5625 C1.31166976 46.90167516 1.59657813 51.77927821 4 60.0625 C7.09396477 70.74244777 7.0168622 81.25242842 4 92 C4.495 91.01 4.495 91.01 5 90 C7.375 89.875 7.375 89.875 10 90 C12 92 12 92 12.22705078 94.15478516 C12.21134033 95.45875244 12.21134033 95.45875244 12.1953125 96.7890625 C12.18564453 98.20058594 12.18564453 98.20058594 12.17578125 99.640625 C12.15902344 100.62546875 12.14226563 101.6103125 12.125 102.625 C12.11597656 103.61757812 12.10695313 104.61015625 12.09765625 105.6328125 C12.07404116 108.08878134 12.04110799 110.54427168 12 113 C14.31 113 16.62 113 19 113 C19.03738281 111.97519531 19.07476562 110.95039063 19.11328125 109.89453125 C19.17897079 108.53381938 19.24541709 107.17314389 19.3125 105.8125 C19.33505859 105.13896484 19.35761719 104.46542969 19.38085938 103.77148438 C19.61544548 99.39965241 20.32684607 96.49013252 23 93 C25.25 91.8125 25.25 91.8125 28 92 C29.95386076 93.38147424 31.63692453 94.88660079 33.3515625 96.5546875 C35.04965701 98.23191563 35.04965701 98.23191563 38 99 C38.37125 97.88625 38.37125 97.88625 38.75 96.75 C40.15151507 93.66666685 41.37243058 92.12900496 44 90 C46.76953125 89.6015625 46.76953125 89.6015625 49.8125 89.625 C55.42827635 89.37935243 57.61898955 88.17513779 61.47265625 84.24609375 C63 83 63 83 66.3125 82.9375 C69 84 69 84 71 87 C71.5807525 89.07296379 72.0050213 91.14947884 72.4375 93.2578125 C72.623125 93.83273438 72.80875 94.40765625 73 95 C73.66 95.33 74.32 95.66 75 96 C74.835 95.484375 74.67 94.96875 74.5 94.4375 C73.84065094 91.22317332 73.81824783 88.27153915 74 85 C74.66 84.34 75.32 83.68 76 83 C80.40867812 83.29391187 83.36337396 84.53992944 87 87 C87.680625 86.01 87.680625 86.01 88.375 85 C88.91125 84.34 89.4475 83.68 90 83 C90.66 83 91.32 83 92 83 C91.7834375 82.07380859 91.7834375 82.07380859 91.5625 81.12890625 C90.2802401 75.27859545 89.80691904 69.98550963 90 64 C90.66 64 91.32 64 92 64 C93.67054991 70.87610275 95.11254898 77.92736721 94 85 C91.8125 88.25 91.8125 88.25 89 90 C84.78575992 90 80.80093334 87.71414641 77 86 C77 89.96 77 93.92 77 98 C74 99 74 99 71 98 C68.54176828 94.31265242 67.98757384 91.30300029 67 87 C63.30943296 87.32563827 62.09030081 87.91184921 59.375 90.5625 C57.21041074 92.55753919 56.27354431 92.98469408 53.27734375 93.15234375 C51.3279844 93.05217904 49.37875777 92.94939066 47.4296875 92.84375 C46.62789062 92.8953125 45.82609375 92.946875 45 93 C42.84397306 95.33749166 42.84397306 95.33749166 42 98 C41.34 98 40.68 98 40 98 C39.34 99.32 38.68 100.64 38 102 C34.39633726 101.68202976 32.49909485 100.7432456 29.875 98.375 C28.92625 97.59125 27.9775 96.8075 27 96 C25.515 96.495 25.515 96.495 24 97 C23.95101562 98.12019531 23.90203125 99.24039063 23.8515625 100.39453125 C23.77652144 101.86721203 23.70097418 103.33986707 23.625 104.8125 C23.57859375 105.91948242 23.57859375 105.91948242 23.53125 107.04882812 C23.32653852 110.81893115 23.13566173 112.79650741 21 116 C18.25005231 117.27676143 16.91979304 116.98035748 13.9375 116.25 C11.11227888 115.04777825 9.85364988 114.3661356 8 112 C7.7512207 110.00708008 7.7512207 110.00708008 7.92578125 107.76953125 C8.00795898 106.56586914 8.00795898 106.56586914 8.09179688 105.33789062 C8.16462891 104.50451172 8.23746094 103.67113281 8.3125 102.8125 C8.37373047 101.96751953 8.43496094 101.12253906 8.49804688 100.25195312 C8.65118791 98.16687905 8.82374157 96.08324724 9 94 C8.34 93.67 7.68 93.34 7 93 C6.67 95.31 6.34 97.62 6 100 C5.01 100 4.02 100 3 100 C1 98 1 98 0.734375 96.1171875 C0.76125713 92.259602 0.93874732 88.78446476 2 85.0625 C4.01175953 77.64231448 3.28404751 71.48511279 1 64.1875 C-2.10990825 54.05272807 -2.49875507 43.3862607 2.125 33.625 C3.69448682 28.91653954 4.10679451 23.55525167 2.1015625 18.92578125 C1.36798788 17.64332633 0.6323134 16.36207025 -0.10546875 15.08203125 C-2.1440728 10.33715807 -1.59928426 4.79785278 0 0 Z " fill="#061905" transform="translate(26,41)"/>
<path d="M0 0 C0.99 0 1.98 0 3 0 C2.67 0.99 2.34 1.98 2 3 C1.64138311 7.62094596 1.64138311 7.62094596 3.00390625 11.92578125 C4.18157648 14.37810631 4.20447687 16.04778627 4.125 18.75 C4.10695312 19.54921875 4.08890625 20.3484375 4.0703125 21.171875 C4.04710937 21.77515625 4.02390625 22.3784375 4 23 C3.01 23 2.02 23 1 23 C1 22.34 1 21.68 1 21 C-0.134375 21.515625 -1.26875 22.03125 -2.4375 22.5625 C-7.28964338 24.37885596 -10.99217663 23.82780714 -16 23 C-17.85290918 22.80045593 -19.70714297 22.61282993 -21.5625 22.4375 C-22.83287109 22.31181641 -22.83287109 22.31181641 -24.12890625 22.18359375 C-24.74636719 22.12300781 -25.36382812 22.06242187 -26 22 C-25.95359375 22.60328125 -25.9071875 23.2065625 -25.859375 23.828125 C-25.56706753 30.30064755 -25.56706753 30.30064755 -27.625 33.625 C-30 35 -30 35 -33.25 34.75 C-34.1575 34.5025 -35.065 34.255 -36 34 C-36.33 30.37 -36.66 26.74 -37 23 C-38.60875 23.0928125 -38.60875 23.0928125 -40.25 23.1875 C-44.28816017 22.98559199 -44.99756931 22.38123813 -48 20 C-50.18343185 20.06608997 -50.18343185 20.06608997 -52 21 C-53.4807848 23.9615696 -53.35314037 26.83506295 -53.5625 30.125 C-53.64628906 31.40632813 -53.73007812 32.68765625 -53.81640625 34.0078125 C-53.87699219 34.99523438 -53.93757813 35.98265625 -54 37 C-53.16855469 36.74863281 -53.16855469 36.74863281 -52.3203125 36.4921875 C-51.59585938 36.28851563 -50.87140625 36.08484375 -50.125 35.875 C-49.40570313 35.66617188 -48.68640625 35.45734375 -47.9453125 35.2421875 C-47.30335937 35.16226563 -46.66140625 35.08234375 -46 35 C-45.34 35.66 -44.68 36.32 -44 37 C-39.67503504 37.44743476 -35.33442013 37.41422735 -30.98901367 37.42553711 C-28.83719652 37.43736426 -26.6883147 37.48646081 -24.53710938 37.53710938 C-16.79885415 37.62710353 -11.76940349 37.45028073 -6 32 C-3.25 31 -3.25 31 -1 31 C0.6315918 32.0847168 0.6315918 32.0847168 2 34 C2.28051758 36.99926758 2.28051758 36.99926758 2.14453125 40.64453125 C2.07588867 42.61969727 2.07588867 42.61969727 2.00585938 44.63476562 C1.97387451 45.32094971 1.94188965 46.00713379 1.90893555 46.71411133 C1.81334214 48.7941755 1.74358094 50.8738828 1.67773438 52.95507812 C1.22665831 64.70927804 1.22665831 64.70927804 -1 70 C-3.125 70.875 -3.125 70.875 -5 71 C-5 70.34 -5 69.68 -5 69 C-4.01 69 -3.02 69 -2 69 C-2.00523682 68.43716309 -2.01047363 67.87432617 -2.01586914 67.29443359 C-2.1056987 56.13510038 -1.9928994 45.12193192 -1 34 C-1.59828613 34.42804932 -2.19657227 34.85609863 -2.81298828 35.29711914 C-11.40444859 40.76578841 -19.0954485 40.74606764 -28.875 40.4375 C-30.37235934 40.41591907 -31.86975987 40.39702219 -33.3671875 40.38085938 C-39.01627586 40.29475505 -44.45802009 40.17756691 -50 39 C-52.33301986 38.96175377 -54.66711508 38.95425716 -57 39 C-57.13593443 36.45651575 -57.23448907 33.92038504 -57.3125 31.375 C-57.35439453 30.66214844 -57.39628906 29.94929688 -57.43945312 29.21484375 C-57.53192226 25.18318958 -57.20139808 22.71851261 -54.640625 19.51171875 C-52 17 -52 17 -49.4375 16.4375 C-47 17 -47 17 -45.1875 18.4375 C-41.93227869 20.76265808 -38.95708592 20.67024284 -35 21 C-34.34 24.96 -33.68 28.92 -33 33 C-29.83402303 31.39292685 -29.83402303 31.39292685 -29.55859375 28.94140625 C-29.51863281 28.15636719 -29.47867188 27.37132813 -29.4375 26.5625 C-29.24585342 23.03736449 -29.0552572 22.0828858 -27 19 C-24.90625 18.671875 -24.90625 18.671875 -22.5 18.75 C-21.7059375 18.76546875 -20.911875 18.7809375 -20.09375 18.796875 C-18 19 -18 19 -16 20 C-14.35744209 20.12114921 -12.70947522 20.17540767 -11.0625 20.1875 C-9.74958984 20.20876953 -9.74958984 20.20876953 -8.41015625 20.23046875 C-5.73755665 20.16663349 -5.73755665 20.16663349 -3 18 C-1.68 18 -0.36 18 1 18 C0.65775391 17.03900391 0.65775391 17.03900391 0.30859375 16.05859375 C-1.52417668 10.54384506 -2.44787542 6.67084538 -1 1 C-0.67 0.67 -0.34 0.34 0 0 Z " fill="#041403" transform="translate(114,13)"/>
<path d="M0 0 C6.72 0.72 6.72 0.72 8 2 C12.72133142 2.45316351 17.15767152 2.07787687 21.75 0.9375 C26.91582375 -0.31373759 29.72468388 0.45029478 34.625 2.5625 C37.84861488 4.19593103 37.84861488 4.19593103 41 4 C41.33 3.67 41.66 3.34 42 3 C48.39534884 3.69767442 48.39534884 3.69767442 51 5 C51 5.99 51 6.98 51 8 C46.545 7.01 46.545 7.01 42 6 C42 6.66 42 7.32 42 8 C36.375 8.25 36.375 8.25 33 6 C33.01160156 6.78246094 33.02320313 7.56492187 33.03515625 8.37109375 C33.04417969 9.38300781 33.05320313 10.39492187 33.0625 11.4375 C33.07410156 12.44683594 33.08570313 13.45617187 33.09765625 14.49609375 C33 17 33 17 32 18 C30.00041636 18.04080783 27.99954746 18.04254356 26 18 C26 16.35 26 14.7 26 13 C26.66 13 27.32 13 28 13 C28 13.99 28 14.98 28 16 C28.66 15.67 29.32 15.34 30 15 C29.67 14.34 29.34 13.68 29 13 C28.86322266 9.66263287 28.95716056 6.3414767 29 3 C25.04 3.66 21.08 4.32 17 5 C17 5.66 17 6.32 17 7 C16.32453125 7.04898438 15.6490625 7.09796875 14.953125 7.1484375 C14.06109375 7.22320312 13.1690625 7.29796875 12.25 7.375 C11.36828125 7.44460937 10.4865625 7.51421875 9.578125 7.5859375 C7.00933618 7.99850055 5.24158985 8.71160957 3 10 C2.97311849 11.64574566 2.95365877 13.29161413 2.9375 14.9375 C2.92589844 15.85402344 2.91429687 16.77054688 2.90234375 17.71484375 C2.74050951 19.96593327 2.74050951 19.96593327 4 21 C6.73631801 21.53821792 9.4842058 21.96478036 12.23828125 22.40234375 C14.8073094 22.95830034 16.72711129 23.70969025 19 25 C21.26647307 20.46705387 21.3948217 16.9747534 21 12 C19.66169042 9.5404226 19.66169042 9.5404226 18 8 C21.16115776 9.36983503 21.9927092 9.9890638 24 13 C24.046875 15.05078125 24.046875 15.05078125 23.75 17.3125 C23.66234375 18.05113281 23.5746875 18.78976563 23.484375 19.55078125 C22.90720641 22.46920629 21.98707204 25.19655358 21 28 C21.70640625 27.566875 22.4128125 27.13375 23.140625 26.6875 C35.16259627 20.16301308 47.7799454 20.84416899 61 23 C61.495 24.98 61.495 24.98 62 27 C61.505 26.01 61.505 26.01 61 25 C56.95839444 24.94168605 52.91689795 24.90629788 48.875 24.875 C47.73289063 24.85824219 46.59078125 24.84148437 45.4140625 24.82421875 C44.30546875 24.81777344 43.196875 24.81132813 42.0546875 24.8046875 C41.03874512 24.79421387 40.02280273 24.78374023 38.97607422 24.77294922 C34.21568628 25.13612894 30.84903809 26.38090973 27 29.1875 C24 31 24 31 20.9375 31 C17.61489639 29.8689009 15.60857941 28.31873725 13 26 C10.1306704 24.5653352 7.2682063 24.67238935 4.09375 24.4765625 C2 24 2 24 0 21 C-1.41654538 14.58545488 -1.39636921 7.52843408 -1 1 C-0.67 0.67 -0.34 0.34 0 0 Z " fill="#072B05" transform="translate(57,75)"/>
<path d="M0 0 C2.29687109 0.01005124 4.59374645 0.01917329 6.890625 0.02734375 C12.46884438 0.04918405 18.04690181 0.08249121 23.625 0.125 C23.67899736 1.58292884 23.71779177 3.04142712 23.75 4.5 C23.77320312 5.31210938 23.79640625 6.12421875 23.8203125 6.9609375 C23.625 9.125 23.625 9.125 21.625 11.125 C21.13 6.67 21.13 6.67 20.625 2.125 C17.87253081 3.17741469 15.37043671 4.27208101 12.8125 5.75 C6.2190619 8.5942282 -0.16080421 6.91159375 -6.8125 5.125 C-14.80186237 3.13153607 -21.14952516 2.41292019 -29.26171875 4.1484375 C-35.96806079 5.39262575 -42.51545139 5.27381332 -49.3125 5.125 C-51.69643275 5.0739795 -54.08057868 5.03191431 -56.46484375 5 C-57.50503662 4.97679687 -58.54522949 4.95359375 -59.61694336 4.9296875 C-62.437797 5.12944699 -64.03853536 5.55806228 -66.375 7.125 C-67.18028889 9.17500871 -67.18028889 9.17500871 -67.375 11.125 C-66.4159375 10.8465625 -66.4159375 10.8465625 -65.4375 10.5625 C-64.756875 10.418125 -64.07625 10.27375 -63.375 10.125 C-62.375 11.125 -62.375 11.125 -62.1953125 14.14453125 C-62.39508154 18.56984983 -63.18944503 22.52891094 -64.25 26.8125 C-64.42402344 27.55822266 -64.59804687 28.30394531 -64.77734375 29.07226562 C-65.63958982 32.65218357 -66.4962639 35.91760819 -68.375 39.125 C-69.035 38.795 -69.695 38.465 -70.375 38.125 C-68.725 30.205 -67.075 22.285 -65.375 14.125 C-66.035 14.125 -66.695 14.125 -67.375 14.125 C-67.375 15.775 -67.375 17.425 -67.375 19.125 C-69.355 20.115 -69.355 20.115 -71.375 21.125 C-72.035 20.465 -72.695 19.805 -73.375 19.125 C-73.375 17.805 -73.375 16.485 -73.375 15.125 C-72.055 14.795 -70.735 14.465 -69.375 14.125 C-69.478125 13.238125 -69.58125 12.35125 -69.6875 11.4375 C-69.27656457 7.08158446 -67.62639472 5.91190976 -64.375 3.125 C-63.715 2.465 -63.055 1.805 -62.375 1.125 C-57.04166667 0.79166667 -57.04166667 0.79166667 -54.375 2.125 C-52.12768875 2.2514848 -49.87583761 2.30082553 -47.625 2.3125 C-45.80742188 2.33376953 -45.80742188 2.33376953 -43.953125 2.35546875 C-40.36631188 2.272301 -36.97835691 1.73134195 -33.4453125 1.12109375 C-22.37050641 -0.54323806 -11.17018036 -0.08542851 0 0 Z " fill="#041E03" transform="translate(96.375,-0.125)"/>
<path d="M0 0 C2 2 2 2 2.3125 5.5625 C2.24502873 8.65213608 1.73120826 10.9696047 0.58203125 13.82421875 C-1.48322584 19.82042448 -2.0041127 25.91118241 -2.46533203 32.20947266 C-2.62400093 34.23723207 -2.83686943 36.25477059 -3.05078125 38.27734375 C-3.72291736 47.18969393 -2.48010455 52.61596028 2.40063477 60.14233398 C5.90382073 66.40165191 4.43491216 73.28313125 2.57421875 79.89453125 C-1.64004818 95.34684334 -1.28227447 112.28940999 -0.83984375 128.19921875 C-1 131 -1 131 -3 134 C-5.1640625 134.29296875 -5.1640625 134.29296875 -7.625 134.1875 C-8.44226563 134.16042969 -9.25953125 134.13335937 -10.1015625 134.10546875 C-10.72804688 134.07066406 -11.35453125 134.03585938 -12 134 C-12.33 134.99 -12.66 135.98 -13 137 C-13.99 137.33 -14.98 137.66 -16 138 C-15.35455571 134.51460083 -13.89865603 131.97180943 -12 129 C-9.03 129.66 -6.06 130.32 -3 131 C-3.16886719 129.494375 -3.33773438 127.98875 -3.51171875 126.4375 C-4.15633648 119.27457186 -4.03407023 112.18205332 -3.8125 105 C-3.79310364 104.32179199 -3.77370728 103.64358398 -3.75372314 102.94482422 C-3.46908585 93.69043501 -2.69166139 84.77699562 -0.28442383 75.796875 C1.67729241 68.39163908 0.6202285 64.00889082 -3.0546875 57.45703125 C-6.71304976 50.42163501 -6.64959819 44.46929627 -6.125 36.6875 C-6.06127197 35.41527588 -5.99754395 34.14305176 -5.93188477 32.83227539 C-5.44045026 24.77078989 -4.39816872 17.30910993 -1.83984375 9.65234375 C-0.79875304 6.82812289 -0.79875304 6.82812289 -1 3 C-8.55038422 3.65349633 -8.55038422 3.65349633 -16 5 C-15.67 4.01 -15.34 3.02 -15 2 C-10.27953156 -0.24222251 -5.15617082 -0.70123923 0 0 Z " fill="#061B05" transform="translate(16,4)"/>
<path d="M0 0 C2.65683189 1.49748707 4.84652751 2.84652751 7 5 C7.38493338 10.67776737 7.00244501 13.99592499 4 19 C3.45601562 18.690625 2.91203125 18.38125 2.3515625 18.0625 C-1.15562487 16.4778572 -4.75501563 16.13061428 -8.5390625 15.5625 C-11 15 -11 15 -13 13 C-13.55159115 9.61497218 -13.53358453 6.38685757 -13 3 C-9.55348249 -0.66192485 -4.79837623 -0.88095189 0 0 Z " fill="#79EC6A" transform="translate(72,82)"/>
<path d="M0 0 C1.32 1.32 2.64 2.64 4 4 C7.27773504 3.24849977 7.27773504 3.24849977 9 0 C12.125 -0.1875 12.125 -0.1875 15 0 C15.495 0.99 15.495 0.99 16 2 C14.35 2 12.7 2 11 2 C10.67 3.32 10.34 4.64 10 6 C11.258125 5.835 12.51625 5.67 13.8125 5.5 C16.26456585 5.17841759 18.51650694 5 21 5 C20.67 5.66 20.34 6.32 20 7 C18.35 7 16.7 7 15 7 C14.67 8.32 14.34 9.64 14 11 C5.74877433 12.16847422 5.74877433 12.16847422 2.5 11.4375 C-0.20044717 10.96492174 -1.61720046 11.28383942 -4.25 11.9375 C-8.81078644 13.05862978 -13.31640576 13.63952692 -18 13 C-18.99 12.34 -19.98 11.68 -21 11 C-23.62531524 10.83286431 -23.62531524 10.83286431 -26 11 C-26.6290627 22.28978677 -26.6290627 22.28978677 -24 33 C-22.07193659 33.31655664 -22.07193659 33.31655664 -19.8125 33.375 C-15.10345789 33.77368887 -12.66744475 35.08485161 -9 38 C-9.66 38.66 -10.32 39.32 -11 40 C-11.33 39.505 -11.66 39.01 -12 38.5 C-14.68864858 36.48351356 -16.76037118 37.03176575 -20 37.12109375 C-22 37 -22 37 -24.875 35.625 C-27.60151955 32.25694644 -27.97902507 29.37720746 -28.54296875 25.14453125 C-28.69378906 24.43683594 -28.84460937 23.72914062 -29 23 C-29.66 22.67 -30.32 22.34 -31 22 C-31.71001899 15.46782525 -29.68620124 10.42027337 -26 5 C-25.01 4.67 -24.02 4.34 -23 4 C-23 4.99 -23 5.98 -23 7 C-21.906875 7.680625 -20.81375 8.36125 -19.6875 9.0625 C-19.07261719 9.44535156 -18.45773438 9.82820313 -17.82421875 10.22265625 C-15.82866925 11.31112074 -15.82866925 11.31112074 -13 10 C-12.01 9.34 -11.02 8.68 -10 8 C-6.3125 8.875 -6.3125 8.875 -3 10 C-3 9.34 -3 8.68 -3 8 C-0.525 8.495 -0.525 8.495 2 9 C2.33 8.01 2.66 7.02 3 6 C2.505 5.566875 2.01 5.13375 1.5 4.6875 C0 3 0 3 0 0 Z " fill="#71E161" transform="translate(83,65)"/>
<path d="M0 0 C1.16015625 0.05478516 2.3203125 0.10957031 3.515625 0.16601562 C4.7221875 0.23884766 5.92875 0.31167969 7.171875 0.38671875 C9.00492188 0.47856445 9.00492188 0.47856445 10.875 0.57226562 C13.89165858 0.72545532 16.90677314 0.89329996 19.921875 1.07421875 C17.06394184 3.93215191 14.77521916 3.48221816 10.796875 3.69921875 C9.51554687 3.77398437 8.23421875 3.84875 6.9140625 3.92578125 C5.43292969 3.99925781 5.43292969 3.99925781 3.921875 4.07421875 C3.921875 4.73421875 3.921875 5.39421875 3.921875 6.07421875 C1.941875 7.06421875 -0.038125 8.05421875 -2.078125 9.07421875 C-2.408125 8.41421875 -2.738125 7.75421875 -3.078125 7.07421875 C-3.17609375 7.92242188 -3.2740625 8.770625 -3.375 9.64453125 C-4.54408642 18.81581266 -5.89997674 28.71792222 -10.078125 37.07421875 C-10.62741005 43.53888131 -10.45779533 48.3963726 -7.078125 54.07421875 C-4.80069707 62.2700581 -5.94576194 72.41121825 -9.4453125 80.08984375 C-10.77309832 84.2535178 -10.29248573 88.75524703 -10.078125 93.07421875 C-10.738125 93.07421875 -11.398125 93.07421875 -12.078125 93.07421875 C-14.39132825 86.13460899 -12.78577894 80.28751308 -10.515625 73.63671875 C-8.51440886 67.31164211 -7.35252272 62.65307744 -9.078125 56.07421875 C-9.5834375 55.12933594 -10.08875 54.18445312 -10.609375 53.2109375 C-15.15645337 43.50002278 -11.36363527 31.65779031 -8.85742188 21.80273438 C-7.58116861 16.73044577 -6.79019584 12.30733125 -7.078125 7.07421875 C-8.398125 7.07421875 -9.718125 7.07421875 -11.078125 7.07421875 C-10.72049168 4.48137719 -10.30465061 3.2960002 -8.41113281 1.44213867 C-5.38206404 -0.3339049 -3.48932601 -0.18814993 0 0 Z " fill="#77E369" transform="translate(40.078125,3.92578125)"/>
<path d="M0 0 C11.88 0 23.76 0 36 0 C36 2.97 36 5.94 36 9 C35.34 9.66 34.68 10.32 34 11 C33.505 6.545 33.505 6.545 33 2 C30.24753081 3.05241469 27.74543671 4.14708101 25.1875 5.625 C18.61580259 8.45984987 12.09696928 6.80420735 5.4375 5.0625 C0.29603605 3.75283817 -4.73128937 2.6577234 -10 2 C-10 1.67 -10 1.34 -10 1 C-6.7 1 -3.4 1 0 1 C0 0.67 0 0.34 0 0 Z " fill="#071C05" transform="translate(84,0)"/>
<path d="M0 0 C3.22361488 1.63343103 3.22361488 1.63343103 6.375 1.4375 C6.705 1.1075 7.035 0.7775 7.375 0.4375 C13.77034884 1.13517442 13.77034884 1.13517442 16.375 2.4375 C16.375 3.4275 16.375 4.4175 16.375 5.4375 C11.92 4.4475 11.92 4.4475 7.375 3.4375 C7.375 4.0975 7.375 4.7575 7.375 5.4375 C1.75 5.6875 1.75 5.6875 -1.625 3.4375 C-1.61339844 4.21996094 -1.60179688 5.00242187 -1.58984375 5.80859375 C-1.58082031 6.82050781 -1.57179688 7.83242187 -1.5625 8.875 C-1.55089844 9.88433594 -1.53929688 10.89367187 -1.52734375 11.93359375 C-1.625 14.4375 -1.625 14.4375 -2.625 15.4375 C-4.62458364 15.47830783 -6.62545254 15.48004356 -8.625 15.4375 C-8.625 13.7875 -8.625 12.1375 -8.625 10.4375 C-7.965 10.4375 -7.305 10.4375 -6.625 10.4375 C-6.625 11.4275 -6.625 12.4175 -6.625 13.4375 C-5.965 13.1075 -5.305 12.7775 -4.625 12.4375 C-4.955 11.7775 -5.285 11.1175 -5.625 10.4375 C-5.76177734 7.10013287 -5.66783944 3.7789767 -5.625 0.4375 C-9.585 1.0975 -13.545 1.7575 -17.625 2.4375 C-17.625 3.0975 -17.625 3.7575 -17.625 4.4375 C-19.08445288 4.35041331 -20.54265868 4.24223093 -22 4.125 C-22.81210938 4.06699219 -23.62421875 4.00898437 -24.4609375 3.94921875 C-26.625 3.4375 -26.625 3.4375 -28.625 0.4375 C-26.96210937 0.23833984 -26.96210937 0.23833984 -25.265625 0.03515625 C-23.8020673 -0.14309757 -22.33852651 -0.32149028 -20.875 -0.5 C-19.78058594 -0.63051758 -19.78058594 -0.63051758 -18.6640625 -0.76367188 C-14.56229831 -1.25536328 -14.56229831 -1.25536328 -10.52636719 -2.11157227 C-6.6366122 -3.03406552 -3.57422992 -1.54061635 0 0 Z " fill="#040F04" transform="translate(91.625,77.5625)"/>
<path d="M0 0 C1.76953125 1.19921875 1.76953125 1.19921875 2.76953125 2.19921875 C2.85032878 6.38851529 2.67089726 10.5753887 2.52758789 14.76245117 C2.45790706 16.86035054 2.40324876 18.9582779 2.34960938 21.05664062 C2.30691388 22.39976928 2.26332172 23.7428698 2.21875 25.0859375 C2.18096436 26.30498779 2.14317871 27.52403809 2.10424805 28.7800293 C1.76688246 32.22627656 1.11793422 35.01341188 -0.23046875 38.19921875 C-2.35546875 39.07421875 -2.35546875 39.07421875 -4.23046875 39.19921875 C-4.23046875 38.53921875 -4.23046875 37.87921875 -4.23046875 37.19921875 C-3.24046875 37.19921875 -2.25046875 37.19921875 -1.23046875 37.19921875 C-1.23570557 36.63638184 -1.24094238 36.07354492 -1.24633789 35.49365234 C-1.33611341 24.34103216 -1.27644295 13.31269458 -0.23046875 2.19921875 C-0.96652344 2.63234375 -1.70257813 3.06546875 -2.4609375 3.51171875 C-3.43675781 4.06859375 -4.41257812 4.62546875 -5.41796875 5.19921875 C-6.86236328 6.03453125 -6.86236328 6.03453125 -8.3359375 6.88671875 C-11.27935618 8.22138633 -13.04926932 8.47837336 -16.23046875 8.19921875 C-15.59109375 8.09609375 -14.95171875 7.99296875 -14.29296875 7.88671875 C-13.27203125 7.54640625 -13.27203125 7.54640625 -12.23046875 7.19921875 C-11.90046875 6.20921875 -11.57046875 5.21921875 -11.23046875 4.19921875 C-9.3046875 2.7421875 -9.3046875 2.7421875 -6.91796875 1.38671875 C-6.13808594 0.92652344 -5.35820313 0.46632812 -4.5546875 -0.0078125 C-2.23046875 -0.80078125 -2.23046875 -0.80078125 0 0 Z " fill="#091B07" transform="translate(113.23046875,44.80078125)"/>
<path d="M0 0 C0.16207546 11.03913945 -0.34235269 21.98440762 -1 33 C-2.98 33.495 -2.98 33.495 -5 34 C-5 33.34 -5 32.68 -5 32 C-4.01 32 -3.02 32 -2 32 C-2.33 23.09 -2.66 14.18 -3 5 C-3.99 4.67 -4.98 4.34 -6 4 C-6 4.66 -6 5.32 -6 6 C-10.66739027 7.84057248 -14.37014955 8.18305167 -19.3671875 7.9765625 C-20.04677521 7.95153656 -20.72636292 7.92651062 -21.42654419 7.90072632 C-23.57658794 7.81918563 -25.72561992 7.7223486 -27.875 7.625 C-29.34110579 7.56669266 -30.80725194 7.50939093 -32.2734375 7.453125 C-35.84949901 7.3137081 -39.42481887 7.16057533 -43 7 C-43 6.67 -43 6.34 -43 6 C-42.07251953 5.99589111 -41.14503906 5.99178223 -40.18945312 5.98754883 C-36.71473758 5.96041618 -33.24174184 5.91117554 -29.76757812 5.84741211 C-28.27029124 5.82435957 -26.77284514 5.80986654 -25.27539062 5.80444336 C-16.06980461 5.76455249 -7.60155817 0 0 0 Z " fill="#77D36B" transform="translate(113,47)"/>
<path d="M0 0 C0.33 1.32 0.66 2.64 1 4 C2.65 4 4.3 4 6 4 C6.55658221 13.13207113 5.5081634 22.88530588 1 31 C0.34 30.67 -0.32 30.34 -1 30 C0.65 22.08 2.3 14.16 4 6 C3.34 6 2.68 6 2 6 C2 7.65 2 9.3 2 11 C0.02 11.99 0.02 11.99 -2 13 C-2.66 12.34 -3.32 11.68 -4 11 C-4 9.68 -4 8.36 -4 7 C-2.68 6.67 -1.36 6.34 0 6 C0 4.02 0 2.04 0 0 Z " fill="#041103" transform="translate(27,8)"/>
<path d="M0 0 C1.9375 0.375 1.9375 0.375 4 1 C5.10647808 3.21295616 5.19588368 4.54672699 5.25 7 C5.27578125 7.70125 5.3015625 8.4025 5.328125 9.125 C5.21984375 9.74375 5.1115625 10.3625 5 11 C4.01 11.66 3.02 12.32 2 13 C1.01 14.485 1.01 14.485 0 16 C-0.53109375 15.69964844 -1.0621875 15.39929688 -1.609375 15.08984375 C-2.31578125 14.70957031 -3.0221875 14.32929687 -3.75 13.9375 C-4.44609375 13.55464844 -5.1421875 13.17179687 -5.859375 12.77734375 C-8.27768111 11.67338515 -8.27768111 11.67338515 -12 13 C-12 16.63 -12 20.26 -12 24 C-12.99 23.67 -13.98 23.34 -15 23 C-15.73046875 20.93359375 -15.73046875 20.93359375 -16.1875 18.4375 C-16.34605469 17.61121094 -16.50460938 16.78492188 -16.66796875 15.93359375 C-16.77753906 15.29550781 -16.88710937 14.65742187 -17 14 C-16.34 14 -15.68 14 -15 14 C-14.67 12.68 -14.34 11.36 -14 10 C-10.37 10 -6.74 10 -3 10 C-3 10.66 -3 11.32 -3 12 C-1.68 11.67 -0.36 11.34 1 11 C1 10.34 1 9.68 1 9 C1.66 8.67 2.32 8.34 3 8 C3 6.35 3 4.7 3 3 C2.01 3 1.02 3 0 3 C0 2.01 0 1.02 0 0 Z " fill="#77DB69" transform="translate(113,113)"/>
<path d="M0 0 C0.86109375 -0.00128906 1.7221875 -0.00257812 2.609375 -0.00390625 C3.5065625 -0.00003906 4.40375 0.00382812 5.328125 0.0078125 C6.20984375 0.00394531 7.0915625 0.00007813 8 -0.00390625 C12.96692585 0.00348501 17.68226193 0.29008197 22.578125 1.1328125 C23.073125 3.1128125 23.073125 3.1128125 23.578125 5.1328125 C23.083125 4.1428125 23.083125 4.1428125 22.578125 3.1328125 C18.53651944 3.07449855 14.49502295 3.03911038 10.453125 3.0078125 C9.31101562 2.99105469 8.16890625 2.97429687 6.9921875 2.95703125 C5.88359375 2.95058594 4.775 2.94414063 3.6328125 2.9375 C2.61687012 2.92702637 1.60092773 2.91655273 0.55419922 2.90576172 C-4.10678512 3.26135773 -7.54614206 4.54899054 -11.421875 7.1328125 C-13.609375 6.7578125 -13.609375 6.7578125 -15.421875 6.1328125 C-14.15355807 5.31638996 -12.88211569 4.50482145 -11.609375 3.6953125 C-10.90167969 3.24285156 -10.19398437 2.79039063 -9.46484375 2.32421875 C-6.24618833 0.44718261 -3.65151246 0.00529643 0 0 Z " fill="#051704" transform="translate(95.421875,96.8671875)"/>
<path d="M0 0 C1.32 1.32 2.64 2.64 4 4 C7.27773504 3.24849977 7.27773504 3.24849977 9 0 C12.125 -0.1875 12.125 -0.1875 15 0 C15.33 0.66 15.66 1.32 16 2 C14.35 2 12.7 2 11 2 C10.67 3.32 10.34 4.64 10 6 C11.258125 5.835 12.51625 5.67 13.8125 5.5 C16.26456585 5.17841759 18.51650694 5 21 5 C20.67 5.66 20.34 6.32 20 7 C18.35 7 16.7 7 15 7 C14.67 8.32 14.34 9.64 14 11 C9.545 11.495 9.545 11.495 5 12 C5 10.68 5 9.36 5 8 C5.99 7.67 6.98 7.34 8 7 C5.69 6.34 3.38 5.68 1 5 C0.67 3.35 0.34 1.7 0 0 Z " fill="#74F560" transform="translate(83,65)"/>
<path d="M0 0 C0.53571429 7.63392857 0.53571429 7.63392857 -2.0625 11.4375 C-4.80713122 15.67041716 -3.94716174 19.24697015 -3 24 C-2.814375 25.175625 -2.62875 26.35125 -2.4375 27.5625 C-2.293125 28.366875 -2.14875 29.17125 -2 30 C-6.43076923 32.09230769 -6.43076923 32.09230769 -9.3125 31.625 C-10.1478125 31.315625 -10.1478125 31.315625 -11 31 C-9.625 29 -9.625 29 -8 27 C-7.34 27 -6.68 27 -6 27 C-6.02320312 26.02417969 -6.04640625 25.04835938 -6.0703125 24.04296875 C-6.08835937 22.77066406 -6.10640625 21.49835937 -6.125 20.1875 C-6.14820312 18.92292969 -6.17140625 17.65835937 -6.1953125 16.35546875 C-6 13 -6 13 -4 10 C-3.34 10 -2.68 10 -2 10 C-1.67 7.69 -1.34 5.38 -1 3 C-1.99 3.66 -2.98 4.32 -4 5 C-4.99 4.67 -5.98 4.34 -7 4 C-2.25 0 -2.25 0 0 0 Z " fill="#7DE36E" transform="translate(117,1)"/>
<path d="M0 0 C9.24 0 18.48 0 28 0 C23.07777778 4.92222222 23.07777778 4.92222222 18.80859375 5.08203125 C12.33216513 4.34583096 6.2365664 2.88519783 0 1 C0 0.67 0 0.34 0 0 Z " fill="#252724" transform="translate(84,0)"/>
<path d="M0 0 C0.66 0 1.32 0 2 0 C3.67054991 6.87610275 5.11254898 13.92736721 4 21 C1.8125 24.25 1.8125 24.25 -1 26 C-5.37944606 26.10948615 -7.82373362 23.81326451 -11 21 C-7.28400809 20.79913557 -6.22791555 20.8480563 -3 23 C-2.54625 22.34 -2.0925 21.68 -1.625 21 C-1.08875 20.34 -0.5525 19.68 0 19 C0.66 19 1.32 19 2 19 C1.855625 18.38253906 1.71125 17.76507813 1.5625 17.12890625 C0.2802401 11.27859545 -0.19308096 5.98550963 0 0 Z " fill="#092008" transform="translate(116,105)"/>
<path d="M0 0 C1.65 0 3.3 0 5 0 C6.20270964 2.40541929 6.20316663 4.10366591 6.31640625 6.7890625 C6.35830078 7.73007813 6.40019531 8.67109375 6.44335938 9.640625 C6.48267578 10.62546875 6.52199219 11.6103125 6.5625 12.625 C6.60568359 13.61757812 6.64886719 14.61015625 6.69335938 15.6328125 C6.79961069 18.08839838 6.90164964 20.54408703 7 23 C8.32 23.33 9.64 23.66 11 24 C11.33 18.72 11.66 13.44 12 8 C12.66 8 13.32 8 14 8 C13.85980308 10.81288705 13.71312045 13.62516885 13.5625 16.4375 C13.50352539 17.64116211 13.50352539 17.64116211 13.44335938 18.86914062 C13.11328125 24.88671875 13.11328125 24.88671875 12 26 C8.5 25.6875 8.5 25.6875 5 25 C3.82355964 22.64711928 3.93754685 21.39943037 4.04296875 18.7890625 C4.06423828 17.95632812 4.08550781 17.12359375 4.10742188 16.265625 C4.16058259 14.51261791 4.22558899 12.75992794 4.30273438 11.0078125 C4.49114677 5.81340498 4.49114677 5.81340498 1.98828125 1.3984375 C1.33214844 0.93695313 0.67601562 0.47546875 0 0 Z " fill="#7FE271" transform="translate(33,129)"/>
<path d="M0 0 C1 1 1 1 1.0625 3.5625 C1.041875 4.366875 1.02125 5.17125 1 6 C-3.0527516 6.98248524 -6.83861737 7.08159574 -11 7 C-11.1875 4.625 -11.1875 4.625 -11 2 C-6.95807022 -0.69461986 -4.7948504 -0.23200889 0 0 Z " fill="#79F567" transform="translate(72,82)"/>
<path d="M0 0 C-1.32 0.33 -2.64 0.66 -4 1 C-3.67 1.99 -3.34 2.98 -3 4 C-3.99580078 4.09087891 -3.99580078 4.09087891 -5.01171875 4.18359375 C-10.31905984 4.65858385 -10.31905984 4.65858385 -15.5625 5.5625 C-22.96023929 6.89029936 -27.76139076 6.24756374 -34 2 C-34 1.67 -34 1.34 -34 1 C-29.77853454 0.64821121 -28.28576572 1.48091295 -25 4 C-21.8684413 3.10232344 -21.8684413 3.10232344 -19 1 C-15.3125 1.875 -15.3125 1.875 -12 3 C-12 2.34 -12 1.68 -12 1 C-9.525 1.495 -9.525 1.495 -7 2 C-7 1.34 -7 0.68 -7 0 C-2.25 -1.125 -2.25 -1.125 0 0 Z " fill="#7EE86F" transform="translate(92,72)"/>
<path d="M0 0 C0.99 0.33 1.98 0.66 3 1 C5.10610315 9.34463596 4.19026723 19.20994763 0.6328125 27.015625 C-0.69497332 31.17929905 -0.21436073 35.68102828 0 40 C-0.66 40 -1.32 40 -2 40 C-4.31268481 33.06194558 -2.70943879 27.21181854 -0.4375 20.5625 C1.98452318 12.9765717 2.58679273 7.7603782 0 0 Z " fill="#71D464" transform="translate(30,57)"/>
<path d="M0 0 C6.93 0 13.86 0 21 0 C18.14206684 2.85793316 15.85334416 2.40799941 11.875 2.625 C10.59367187 2.69976562 9.31234375 2.77453125 7.9921875 2.8515625 C7.00476562 2.90054687 6.01734375 2.94953125 5 3 C5 3.66 5 4.32 5 5 C3.02 5.99 1.04 6.98 -1 8 C-1 7.01 -1 6.02 -1 5 C-1.66 4.67 -2.32 4.34 -3 4 C-2.67 3.34 -2.34 2.68 -2 2 C-1.34 2 -0.68 2 0 2 C0 1.34 0 0.68 0 0 Z " fill="#7BE96B" transform="translate(39,5)"/>
<path d="M0 0 C5.8108223 0.33204699 9.05593168 4.05593168 13 8 C9.4079261 8.41052273 8.29007004 8.22791218 5.375 5.9375 C4.59125 5.298125 3.8075 4.65875 3 4 C-0.0895946 4.66229729 -0.0895946 4.66229729 -1.125 6.9375 C-2.35448067 11.24068233 -2.67151129 15.54811358 -3 20 C-3.33 20 -3.66 20 -4 20 C-4.0814222 17.77144426 -4.13938079 15.54202345 -4.1875 13.3125 C-4.22230469 12.07113281 -4.25710937 10.82976562 -4.29296875 9.55078125 C-3.95907002 5.50392869 -2.88757052 2.88757052 0 0 Z " fill="#12360E" transform="translate(50,133)"/>
<path d="M0 0 C1.43088528 2.86177057 0.59991697 4.93375773 0 8 C1.051875 7.814375 2.10375 7.62875 3.1875 7.4375 C6.57119882 7.04920669 8.76425888 7.11752515 12 8 C12 8.66 12 9.32 12 10 C10.68 10 9.36 10 8 10 C8.33 10.99 8.66 11.98 9 13 C2.9453125 13.1953125 2.9453125 13.1953125 1 13 C-1 11 -1 11 -1.23046875 8.65234375 C-1.21628906 7.75644531 -1.20210937 6.86054687 -1.1875 5.9375 C-1.18105469 5.03902344 -1.17460938 4.14054687 -1.16796875 3.21484375 C-1 1 -1 1 0 0 Z " fill="#5A9156" transform="translate(60,84)"/>
<path d="M0 0 C0.66 0 1.32 0 2 0 C1.67 1.32 1.34 2.64 1 4 C4.37705625 3.46274105 7.696686 2.88935377 11 2 C11.33 2.99 11.66 3.98 12 5 C11.01 6.485 11.01 6.485 10 8 C9.39671875 7.90460938 8.7934375 7.80921875 8.171875 7.7109375 C7.37265625 7.60007812 6.5734375 7.48921875 5.75 7.375 C4.56664063 7.20097656 4.56664063 7.20097656 3.359375 7.0234375 C0.67847541 6.99680605 -0.72694089 7.63407916 -3 9 C-3.33 8.34 -3.66 7.68 -4 7 C-6.52733235 6.34444881 -6.52733235 6.34444881 -9 6 C-8.67 5.34 -8.34 4.68 -8 4 C-7.34 4 -6.68 4 -6 4 C-5.67 3.34 -5.34 2.68 -5 2 C-5 2.66 -5 3.32 -5 4 C-3.01508358 3.73323796 -3.01508358 3.73323796 -1 3 C-0.67 2.01 -0.34 1.02 0 0 Z " fill="#79EC68" transform="translate(98,72)"/>
<path d="M0 0 C0.33 0 0.66 0 1 0 C1.33 2.31 1.66 4.62 2 7 C2.33 7 2.66 7 3 7 C3.05386629 9.12472576 3.09273071 11.24983652 3.125 13.375 C3.14820312 14.55835938 3.17140625 15.74171875 3.1953125 16.9609375 C3 20 3 20 1 22 C1 20.68 1 19.36 1 18 C0.34 18 -0.32 18 -1 18 C-0.67 19.65 -0.34 21.3 0 23 C-2 21 -2 21 -2.25 17.5625 C-2 14 -2 14 0 11 C-0.66 10.67 -1.32 10.34 -2 10 C-1.34 6.7 -0.68 3.4 0 0 Z " fill="#262826" transform="translate(117,2)"/>
<path d="M0 0 C0.33 0 0.66 0 1 0 C1 5.94 1 11.88 1 18 C2.65 18.33 4.3 18.66 6 19 C6.433125 17.2984375 6.433125 17.2984375 6.875 15.5625 C7.24625 14.386875 7.6175 13.21125 8 12 C8.66 11.67 9.32 11.34 10 11 C9.54917531 12.46067199 9.08906463 13.91848032 8.625 15.375 C8.36976562 16.18710937 8.11453125 16.99921875 7.8515625 17.8359375 C7 20 7 20 5 22 C3.68 22 2.36 22 1 22 C-1.44531616 18.33202576 -1.23819639 16.48488996 -1.1875 12.125 C-1.18105469 10.91070312 -1.17460938 9.69640625 -1.16796875 8.4453125 C-1.02448639 5.50225573 -0.67933242 2.85863082 0 0 Z " fill="#237F17" transform="translate(43,24)"/>
<path d="M0 0 C2.57449581 2.57449581 2.2763761 4.41337147 2.36328125 7.9296875 C2 10 2 10 -1 14 C-1 10.37 -1 6.74 -1 3 C-8.55085586 3.65824832 -8.55085586 3.65824832 -16 5 C-15.67 4.01 -15.34 3.02 -15 2 C-10.27953156 -0.24222251 -5.15617082 -0.70123923 0 0 Z " fill="#031003" transform="translate(16,4)"/>
<path d="M0 0 C1.18851563 0.10183594 2.37703125 0.20367187 3.6015625 0.30859375 C4.51679687 0.39238281 5.43203125 0.47617188 6.375 0.5625 C6.045 1.2225 5.715 1.8825 5.375 2.5625 C3.48135431 2.66263057 1.58378542 2.69216491 -0.3125 2.6875 C-4.96371503 2.93653434 -4.96371503 2.93653434 -8.75390625 5.40234375 C-10.21136162 7.40063798 -11.48569351 9.36883532 -12.625 11.5625 C-15 11.25 -15 11.25 -17.625 10.5625 C-18.285 9.5725 -18.945 8.5825 -19.625 7.5625 C-17.15 8.5525 -17.15 8.5525 -14.625 9.5625 C-14.295 8.9025 -13.965 8.2425 -13.625 7.5625 C-12.965 7.5625 -12.305 7.5625 -11.625 7.5625 C-11.295 5.9125 -10.965 4.2625 -10.625 2.5625 C-9.965 2.5625 -9.305 2.5625 -8.625 2.5625 C-8.625 1.9025 -8.625 1.2425 -8.625 0.5625 C-5.68113377 -0.90943312 -3.25109964 -0.28686173 0 0 Z " fill="#73D464" transform="translate(76.625,128.4375)"/>
<path d="M0 0 C0.33 0.99 0.66 1.98 1 3 C6.94 2.505 6.94 2.505 13 2 C13 4.97 13 7.94 13 11 C11.68 11.33 10.36 11.66 9 12 C8.67 10.68 8.34 9.36 8 8 C9.32 8 10.64 8 12 8 C12 7.34 12 6.68 12 6 C8.04 6 4.08 6 0 6 C0 4.02 0 2.04 0 0 Z " fill="#7FED6F" transform="translate(60,86)"/>
<path d="M0 0 C2.375 -0.125 2.375 -0.125 5 0 C5.66 0.66 6.32 1.32 7 2 C7.99 1.34 8.98 0.68 10 0 C16.06382979 0.53191489 16.06382979 0.53191489 19 2 C19 2.99 19 3.98 19 5 C16.03 4.34 13.06 3.68 10 3 C10 3.66 10 4.32 10 5 C8.02 5 6.04 5 4 5 C3.71125 4.360625 3.4225 3.72125 3.125 3.0625 C2.17176549 0.84793921 2.17176549 0.84793921 0 0 Z " fill="#0C230A" transform="translate(89,78)"/>
<path d="M0 0 C0 0.99 0 1.98 0 3 C1.65 3.33 3.3 3.66 5 4 C5 4.33 5 4.66 5 5 C3.18769567 5.33439553 1.3751509 5.66748824 -0.4375 6 C-1.44683594 6.185625 -2.45617188 6.37125 -3.49609375 6.5625 C-6 7 -6 7 -7 7 C-7 4.69 -7 2.38 -7 0 C-3.86650268 -1.04449911 -3.01031744 -0.93423645 0 0 Z " fill="#182D16" transform="translate(65,77)"/>
<path d="M0 0 C2.97 1.98 2.97 1.98 6 4 C7.32 2.68 8.64 1.36 10 0 C9.835 1.093125 9.67 2.18625 9.5 3.3125 C8.93281816 6.87525873 8.93281816 6.87525873 9 10 C8.01 10.495 8.01 10.495 7 11 C7 10.01 7 9.02 7 8 C5.35 7.67 3.7 7.34 2 7 C1.34 4.69 0.68 2.38 0 0 Z " fill="#77E467" transform="translate(80,115)"/>
<path d="M0 0 C0.66 0.33 1.32 0.66 2 1 C2 1.66 2 2.32 2 3 C3.03125 2.505 4.0625 2.01 5.125 1.5 C8.52451578 0.02526098 11.27021549 -0.27291106 15 0 C15 0.33 15 0.66 15 1 C12.03 1.66 9.06 2.32 6 3 C6 3.66 6 4.32 6 5 C4.68 5 3.36 5 2 5 C1.34 6.65 0.68 8.3 0 10 C-0.99 10 -1.98 10 -3 10 C-2.67 8.35 -2.34 6.7 -2 5 C-1.34 5 -0.68 5 0 5 C0 3.35 0 1.7 0 0 Z " fill="#45B038" transform="translate(67,18)"/>
<path d="M0 0 C0.99 0 1.98 0 3 0 C3 4.95 3 9.9 3 15 C1 13 1 13 0.8046875 11.0546875 C0.86979167 9.03645833 0.93489583 7.01822917 1 5 C0.34 5 -0.32 5 -1 5 C-1 7.64 -1 10.28 -1 13 C-1.33 13 -1.66 13 -2 13 C-2.05447047 11.58376784 -2.09300508 10.16691809 -2.125 8.75 C-2.14820312 7.96109375 -2.17140625 7.1721875 -2.1953125 6.359375 C-1.9828378 3.79268059 -1.28654105 2.2083933 0 0 Z " fill="#233920" transform="translate(117,100)"/>
<path d="M0 0 C0 0.33 0 0.66 0 1 C-1.093125 1.309375 -2.18625 1.61875 -3.3125 1.9375 C-5.55407994 2.58337897 -7.7869351 3.2623117 -10 4 C-10.73323796 6.01508358 -10.73323796 6.01508358 -11 8 C-10.0409375 7.7215625 -10.0409375 7.7215625 -9.0625 7.4375 C-8.381875 7.293125 -7.70125 7.14875 -7 7 C-6 8 -6 8 -5.9375 11.5625 C-5.958125 12.696875 -5.97875 13.83125 -6 15 C-6.33 15 -6.66 15 -7 15 C-7 13.02 -7 11.04 -7 9 C-8.65 9 -10.3 9 -12 9 C-12.3125 6.25 -12.3125 6.25 -12 3 C-8.22348067 -1.4631592 -5.48700159 -1.2910592 0 0 Z " fill="#10320C" transform="translate(40,3)"/>
<path d="M0 0 C1.2065625 0.0309375 1.2065625 0.0309375 2.4375 0.0625 C2.1075 0.7225 1.7775 1.3825 1.4375 2.0625 C0.4475 2.0625 -0.5425 2.0625 -1.5625 2.0625 C-1.22022428 5.03315509 -1.22022428 5.03315509 -0.5625 8.0625 C0.0975 8.3925 0.7575 8.7225 1.4375 9.0625 C0.7775 9.7225 0.1175 10.3825 -0.5625 11.0625 C-0.96297444 13.38525177 -1.3022104 15.71989357 -1.5625 18.0625 C-1.8925 18.0625 -2.2225 18.0625 -2.5625 18.0625 C-3.77543283 12.45268566 -3.89361384 6.77908302 -3.5625 1.0625 C-2.5625 0.0625 -2.5625 0.0625 0 0 Z " fill="#001C00" transform="translate(59.5625,74.9375)"/>
<path d="M0 0 C1.31571603 0.2547514 2.62760376 0.52934141 3.9375 0.8125 C4.66839844 0.96332031 5.39929688 1.11414063 6.15234375 1.26953125 C6.76207031 1.51058594 7.37179687 1.75164062 8 2 C8.33 2.99 8.66 3.98 9 5 C6.03 5 3.06 5 0 5 C-0.33 5.99 -0.66 6.98 -1 8 C-1.99 8.33 -2.98 8.66 -4 9 C-3.35455571 5.51460083 -1.89865603 2.97180943 0 0 Z " fill="#0C290A" transform="translate(4,133)"/>
<path d="M0 0 C0.66 0 1.32 0 2 0 C2.33 0.66 2.66 1.32 3 2 C4.92806341 2.31655664 4.92806341 2.31655664 7.1875 2.375 C11.89654211 2.77368887 14.33255525 4.08485161 18 7 C17.34 7.66 16.68 8.32 16 9 C15.67 8.505 15.34 8.01 15 7.5 C12.3117303 5.48379772 10.24743592 6.01486896 7.0078125 6.15234375 C3.78739954 5.90799335 2.14521626 4.27929228 0 2 C0 1.34 0 0.68 0 0 Z " fill="#7CE46E" transform="translate(56,96)"/>
<path d="M0 0 C5.45769811 -0.11138159 10.61509359 0.08342019 16 1 C16.33 2.32 16.66 3.64 17 5 C16.67 4.34 16.34 3.68 16 3 C15.1646875 3.01740234 15.1646875 3.01740234 14.3125 3.03515625 C9.10221657 3.09676433 4.1562049 2.74999344 -1 2 C-0.67 1.34 -0.34 0.68 0 0 Z " fill="#011001" transform="translate(102,97)"/>
<path d="M0 0 C0.33 0 0.66 0 1 0 C1.33 3.63 1.66 7.26 2 11 C-1 13 -1 13 -4.1875 12.625 C-5.5796875 12.315625 -5.5796875 12.315625 -7 12 C-6.67 9.36 -6.34 6.72 -6 4 C-5.67 4 -5.34 4 -5 4 C-4.67 6.31 -4.34 8.62 -4 11 C-0.82990528 9.37921338 -0.82990528 9.37921338 -0.48828125 6.8359375 C-0.43027344 6.02382813 -0.37226562 5.21171875 -0.3125 4.375 C-0.24675781 3.55773438 -0.18101563 2.74046875 -0.11328125 1.8984375 C-0.07589844 1.27195313 -0.03851563 0.64546875 0 0 Z " fill="#0F2E0C" transform="translate(85,35)"/>
<path d="M0 0 C0.99 0 1.98 0 3 0 C2.67 5.94 2.34 11.88 2 18 C1.34 18 0.68 18 0 18 C0 12.06 0 6.12 0 0 Z " fill="#80E670" transform="translate(55,34)"/>
<path d="M0 0 C4.62 0 9.24 0 14 0 C14 0.66 14 1.32 14 2 C18.29 2 22.58 2 27 2 C27 2.33 27 2.66 27 3 C24.54159395 3.02691685 22.08348118 3.04679802 19.625 3.0625 C18.92632812 3.07087891 18.22765625 3.07925781 17.5078125 3.08789062 C12.2265625 3.11328125 12.2265625 3.11328125 10 2 C8.00045254 1.95745644 5.99958364 1.95919217 4 2 C3.01 2 2.02 2 1 2 C0.67 1.34 0.34 0.68 0 0 Z " fill="#1D251E" transform="translate(30,0)"/>
<path d="M0 0 C3.125 0.375 3.125 0.375 6 1 C3 3 3 3 1 3 C1.04125 3.94875 1.0825 4.8975 1.125 5.875 C1 9 1 9 -1 11 C-2.50662097 7.98675805 -2.17770373 5.31713623 -2 2 C-1.34 1.34 -0.68 0.68 0 0 Z " fill="#0D300A" transform="translate(102,124)"/>
<path d="M0 0 C0 2.97 0 5.94 0 9 C-0.33 7.68 -0.66 6.36 -1 5 C-3.37625345 3.81608777 -3.37625345 3.81608777 -6 3 C-6.99 2.34 -7.98 1.68 -9 1 C-5.64919071 -1.10976881 -3.77897651 -1.0497157 0 0 Z " fill="#7CF06B" transform="translate(99,122)"/>
<path d="M0 0 C4 6 4 6 3.625 8.1875 C3.41875 8.785625 3.2125 9.38375 3 10 C2.34 10 1.68 10 1 10 C1 9.01 1 8.02 1 7 C0.34 7 -0.32 7 -1 7 C-1.33 8.32 -1.66 9.64 -2 11 C-2 7.7 -2 4.4 -2 1 C-1.34 0.67 -0.68 0.34 0 0 Z " fill="#313630" transform="translate(84,81)"/>
<path d="M0 0 C1.32 0 2.64 0 4 0 C4 0.66 4 1.32 4 2 C9.61 2 15.22 2 21 2 C21 2.33 21 2.66 21 3 C12.09 3 3.18 3 -6 3 C-6 2.67 -6 2.34 -6 2 C-4.02 1.67 -2.04 1.34 0 1 C0 0.67 0 0.34 0 0 Z " fill="#1E221C" transform="translate(80,48)"/>
<path d="M0 0 C0 1.65 0 3.3 0 5 C-1.98 5.99 -1.98 5.99 -4 7 C-4.66 6.34 -5.32 5.68 -6 5 C-6 3.68 -6 2.36 -6 1 C-4 0 -4 0 0 0 Z " fill="#0B140B" transform="translate(29,14)"/>
<path d="M0 0 C0.33 0.66 0.66 1.32 1 2 C0.22914062 1.98839844 -0.54171875 1.97679688 -1.3359375 1.96484375 C-2.33882812 1.95582031 -3.34171875 1.94679687 -4.375 1.9375 C-5.87160156 1.92009766 -5.87160156 1.92009766 -7.3984375 1.90234375 C-9.98432453 1.81993398 -9.98432453 1.81993398 -12 3 C-13.87379605 3.07033769 -15.75001102 3.0843022 -17.625 3.0625 C-18.62789063 3.05347656 -19.63078125 3.04445312 -20.6640625 3.03515625 C-21.43492188 3.02355469 -22.20578125 3.01195312 -23 3 C-23 2.67 -23 2.34 -23 2 C-15.27111181 0.04596958 -7.94957992 -0.22428282 0 0 Z " fill="#011300" transform="translate(84,0)"/>
<path d="M0 0 C4.83473198 7.25209797 4.01607582 13.63797063 3 22 C2.67 22 2.34 22 2 22 C1.34 14.74 0.68 7.48 0 0 Z " fill="#0C200A" transform="translate(28,99)"/>
<path d="M0 0 C1.65 0 3.3 0 5 0 C4.01 0.495 4.01 0.495 3 1 C2.59270772 3.32156597 2.25561323 5.6568787 2 8 C1.01 8 0.02 8 -1 8 C-1.66 6.68 -2.32 5.36 -3 4 C-2.01 4 -1.02 4 0 4 C0 2.68 0 1.36 0 0 Z " fill="#0A1109" transform="translate(30,133)"/>
<path d="M0 0 C0.66 0 1.32 0 2 0 C3.2982126 5.76081841 4.25706972 11.08739655 4 17 C3.33333333 15.66666667 2.66666667 14.33333333 2 13 C1.4740625 12.08734375 1.4740625 12.08734375 0.9375 11.15625 C-0.14175999 8.67395203 -0.20416324 6.94155007 -0.125 4.25 C-0.10695313 3.45078125 -0.08890625 2.6515625 -0.0703125 1.828125 C-0.04710938 1.22484375 -0.02390625 0.6215625 0 0 Z " fill="#011602" transform="translate(116,105)"/>
<path d="M0 0 C1.32 1.32 2.64 2.64 4 4 C7.27773504 3.24849977 7.27773504 3.24849977 9 0 C12.125 -0.1875 12.125 -0.1875 15 0 C15.33 0.66 15.66 1.32 16 2 C14.8553125 1.87625 14.8553125 1.87625 13.6875 1.75 C10.85416667 1.70833333 10.85416667 1.70833333 9.1875 4 C8.795625 4.66 8.40375 5.32 8 6 C5.69 5.67 3.38 5.34 1 5 C0.67 3.35 0.34 1.7 0 0 Z " fill="#218119" transform="translate(83,65)"/>
<path d="M0 0 C3.3 0 6.6 0 10 0 C10.66 4.29 11.32 8.58 12 13 C11.34 13 10.68 13 10 13 C8.70756464 8.8803623 7.73747375 5.33168317 8 1 C5.36 1 2.72 1 0 1 C0 0.67 0 0.34 0 0 Z " fill="#69C45B" transform="translate(71,33)"/>
<path d="M0 0 C2.97 0 5.94 0 9 0 C9 1.65 9 3.3 9 5 C7.35 5 5.7 5 4 5 C4 4.01 4 3.02 4 2 C2.68 2 1.36 2 0 2 C0 1.34 0 0.68 0 0 Z M9 3 C11 4 11 4 11 4 Z " fill="#7EF26C" transform="translate(74,105)"/>
<path d="M0 0 C1.32 1.32 2.64 2.64 4 4 C4.66 2.68 5.32 1.36 6 0 C6 1.98 6 3.96 6 6 C3 7 3 7 0 6 C-1.1875 3.4375 -1.1875 3.4375 -2 1 C-1.34 0.67 -0.68 0.34 0 0 Z " fill="#081907" transform="translate(97,133)"/>
<path d="M0 0 C0 3.3 0 6.6 0 10 C-0.66 10 -1.32 10 -2 10 C-2.33 10.66 -2.66 11.32 -3 12 C-3 8.37 -3 4.74 -3 1 C-1 0 -1 0 0 0 Z " fill="#0C2D0A" transform="translate(116,47)"/>
<path d="M0 0 C4.29 0.33 8.58 0.66 13 1 C12.67 1.66 12.34 2.32 12 3 C7.71 3 3.42 3 -1 3 C-0.67 2.01 -0.34 1.02 0 0 Z " fill="#7EE070" transform="translate(70,128)"/>
<path d="M0 0 C0.66 0 1.32 0 2 0 C2.33 3.3 2.66 6.6 3 10 C4.65 10.33 6.3 10.66 8 11 C7.67 11.66 7.34 12.32 7 13 C4.625 12.4375 4.625 12.4375 2 11 C0.48351612 7.10047002 0 4.1914598 0 0 Z " fill="#6CDB5C" transform="translate(42,104)"/>
<path d="M0 0 C1 2 1 2 0.3984375 3.91015625 C-2.39218033 9.77897467 -2.39218033 9.77897467 -5.75 11 C-6.4925 11 -7.235 11 -8 11 C-8 9.68 -8 8.36 -8 7 C-5.525 7.495 -5.525 7.495 -3 8 C-2.690625 6.865625 -2.38125 5.73125 -2.0625 4.5625 C-1 1 -1 1 0 0 Z " fill="#3A972F" transform="translate(52,35)"/>
<path d="M0 0 C0 0.33 0 0.66 0 1 C-2.26860837 1.5304408 -4.53998489 2.04905434 -6.8125 2.5625 C-8.70935547 2.99755859 -8.70935547 2.99755859 -10.64453125 3.44140625 C-14 4 -14 4 -17 3 C-11.06108578 0.4084738 -6.45892714 -0.40368295 0 0 Z " fill="#72D463" transform="translate(81,2)"/>
<path d="M0 0 C0.99 0.33 1.98 0.66 3 1 C2.67 4.63 2.34 8.26 2 12 C1.67 12 1.34 12 1 12 C0.855625 11.2575 0.71125 10.515 0.5625 9.75 C0.05802414 7.08713438 0.05802414 7.08713438 -0.625 4.875 C-1 3 -1 3 0 0 Z " fill="#1F231D" transform="translate(33,134)"/>
<path d="M0 0 C3.44475962 4.38423952 5.31620235 7.30835767 5 13 C4.01 13.495 4.01 13.495 3 14 C-0.44419134 4.58997722 -0.44419134 4.58997722 0 0 Z " fill="#6ACC5B" transform="translate(13,61)"/>
<path d="M0 0 C0.33 0 0.66 0 1 0 C1 4.62 1 9.24 1 14 C0.01 14.33 -0.98 14.66 -2 15 C-1.47462276 9.9697924 -0.89405214 4.98114761 0 0 Z " fill="#0C2D09" transform="translate(16,78)"/>
<path d="M0 0 C1.32 0.33 2.64 0.66 4 1 C4.33 3.97 4.66 6.94 5 10 C4.01 9.67 3.02 9.34 2 9 C1.26953125 6.93359375 1.26953125 6.93359375 0.8125 4.4375 C0.65394531 3.61121094 0.49539062 2.78492188 0.33203125 1.93359375 C0.16767578 0.97646484 0.16767578 0.97646484 0 0 Z " fill="#77D16B" transform="translate(96,127)"/>
<path d="M0 0 C4.875 2.875 4.875 2.875 6 4 C6.14115161 6.67058851 6.04247107 9.32432238 6 12 C5.67 12 5.34 12 5 12 C5 9.69 5 7.38 5 5 C3.35 5 1.7 5 0 5 C0 3.35 0 1.7 0 0 Z " fill="#7BDA6A" transform="translate(73,83)"/>
<path d="M0 0 C3.63 0.33 7.26 0.66 11 1 C11 1.99 11 2.98 11 4 C9.54054712 3.91291331 8.08234132 3.80473093 6.625 3.6875 C5.81289062 3.62949219 5.00078125 3.57148437 4.1640625 3.51171875 C2 3 2 3 0 0 Z " fill="#011402" transform="translate(63,78)"/>
<path d="M0 0 C0.66 0.99 1.32 1.98 2 3 C1.34 3.66 0.68 4.32 0 5 C-0.30059943 7.36509361 -0.49515012 9.74441881 -0.625 12.125 C-0.69976562 13.40632813 -0.77453125 14.68765625 -0.8515625 16.0078125 C-0.90054688 16.99523437 -0.94953125 17.98265625 -1 19 C-1.33 19 -1.66 19 -2 19 C-2.05394705 16.39555652 -2.09364469 13.79223002 -2.125 11.1875 C-2.14175781 10.44951172 -2.15851562 9.71152344 -2.17578125 8.95117188 C-2.21074628 5.08753574 -2.19397555 3.29096332 0 0 Z " fill="#0A3D06" transform="translate(59,33)"/>
<path d="M0 0 C2.375 -0.125 2.375 -0.125 5 0 C7 2 7 2 7.1953125 4.1640625 C7.17210937 4.97617188 7.14890625 5.78828125 7.125 6.625 C7.10695313 7.44226563 7.08890625 8.25953125 7.0703125 9.1015625 C7.03550781 10.04128906 7.03550781 10.04128906 7 11 C6.67 11 6.34 11 6 11 C6 8.69 6 6.38 6 4 C5.34 4 4.68 4 4 4 C4 3.34 4 2.68 4 2 C2.68 2 1.36 2 0 2 C0 1.34 0 0.68 0 0 Z " fill="#092C07" transform="translate(31,131)"/>
<path d="M0 0 C1.95582488 2.93373731 3.56224304 5.78216298 5 9 C4.67 9.66 4.34 10.32 4 11 C3.34 11 2.68 11 2 11 C-0.32590854 7.36576791 -0.16265833 4.22911669 0 0 Z " fill="#0D2C0B" transform="translate(27,51)"/>
<path d="M0 0 C2.97 1.98 2.97 1.98 6 4 C7.32 2.68 8.64 1.36 10 0 C9.34 1.98 8.68 3.96 8 6 C4 6 4 6 1.75 4.125 C0 2 0 2 0 0 Z " fill="#1D7915" transform="translate(80,115)"/>
<path d="M0 0 C0.33 0.99 0.66 1.98 1 3 C2.65 3.33 4.3 3.66 6 4 C5.67 4.66 5.34 5.32 5 6 C2.03 5.505 2.03 5.505 -1 5 C-1 1 -1 1 0 0 Z " fill="#113B0F" transform="translate(76,100)"/>
<path d="M0 0 C1.45823212 -0.0270043 2.91660675 -0.04639787 4.375 -0.0625 C5.18710938 -0.07410156 5.99921875 -0.08570312 6.8359375 -0.09765625 C9 0 9 0 11 1 C11 1.66 11 2.32 11 3 C7.7 3 4.4 3 1 3 C0.67 2.01 0.34 1.02 0 0 Z " fill="#0E2B0D" transform="translate(87,32)"/>
<path d="M0 0 C0.625 2.875 0.625 2.875 1 6 C0.34 6.66 -0.32 7.32 -1 8 C-1 6.68 -1 5.36 -1 4 C-2.65 4 -4.3 4 -6 4 C-6 3.34 -6 2.68 -6 2 C-2.25 0 -2.25 0 0 0 Z " fill="#7BF269" transform="translate(14,8)"/>
<path d="M0 0 C0 0.66 0 1.32 0 2 C-2.97 2.66 -5.94 3.32 -9 4 C-8.67 3.01 -8.34 2.02 -8 1 C-2.59770115 -1.29885057 -2.59770115 -1.29885057 0 0 Z " fill="#071E07" transform="translate(9,5)"/>
<path d="M0 0 C0.33 0 0.66 0 1 0 C1.08114106 1.77007714 1.13925505 3.54122098 1.1875 5.3125 C1.23970703 6.79169922 1.23970703 6.79169922 1.29296875 8.30078125 C1 11 1 11 -0.51171875 12.85546875 C-1.00285156 13.23316406 -1.49398437 13.61085938 -2 14 C-1.43393721 9.30976546 -0.81462495 4.65499974 0 0 Z " fill="#6ED261" transform="translate(34,12)"/>
<path d="M0 0 C4.62 0 9.24 0 14 0 C14.33 0.99 14.66 1.98 15 3 C9.99109914 2.38487182 4.99367864 1.7282448 0 1 C0 0.67 0 0.34 0 0 Z " fill="#0F3A0B" transform="translate(74,1)"/>
<path d="M0 0 C0 1.98 0 3.96 0 6 C-1.65 6.33 -3.3 6.66 -5 7 C-4.34 6.67 -3.68 6.34 -3 6 C-3 4.35 -3 2.7 -3 1 C-1 0 -1 0 0 0 Z " fill="#7BEC6A" transform="translate(63,111)"/>
<path d="M0 0 C0.33 0 0.66 0 1 0 C1.06058594 0.62648438 1.12117188 1.25296875 1.18359375 1.8984375 C1.26738281 2.71570313 1.35117187 3.53296875 1.4375 4.375 C1.51871094 5.18710938 1.59992187 5.99921875 1.68359375 6.8359375 C1.89090114 9.04272805 1.89090114 9.04272805 3 11 C2.34 11.66 1.68 12.32 1 13 C-1.30143236 9.54785147 -1.13833854 8.76520676 -0.625 4.8125 C-0.51414063 3.91144531 -0.40328125 3.01039062 -0.2890625 2.08203125 C-0.19367187 1.39496094 -0.09828125 0.70789063 0 0 Z " fill="#094206" transform="translate(58,86)"/>
<path d="M0 0 C2.97 0.33 5.94 0.66 9 1 C9 1.66 9 2.32 9 3 C6.03 2.67 3.06 2.34 0 2 C0 1.34 0 0.68 0 0 Z " fill="#051504" transform="translate(98,34)"/>
<path d="M0 0 C1.98 0 3.96 0 6 0 C6.625 2.375 6.625 2.375 7 5 C6.34 5.66 5.68 6.32 5 7 C5 5.35 5 3.7 5 2 C4.01 2.33 3.02 2.66 2 3 C2 2.34 2 1.68 2 1 C1.34 0.67 0.68 0.34 0 0 Z " fill="#6CC95D" transform="translate(9,6)"/>
<path d="M0 0 C0.66 0 1.32 0 2 0 C2.33 1.98 2.66 3.96 3 6 C2.01 6.33 1.02 6.66 0 7 C-1 6 -1 6 -1.125 3.5 C-1 1 -1 1 0 0 Z " fill="#0A2508" transform="translate(35,147)"/>
<path d="M0 0 C0.99 0 1.98 0 3 0 C1.375 5.75 1.375 5.75 -2 8 C-1.125 1.125 -1.125 1.125 0 0 Z " fill="#0D2B0B" transform="translate(114,13)"/>
<path d="M0 0 C0.33 0 0.66 0 1 0 C1.33 3.63 1.66 7.26 2 11 C1.01 11.495 1.01 11.495 0 12 C-0.66 11.34 -1.32 10.68 -2 10 C-1.7578125 7.6171875 -1.7578125 7.6171875 -1.125 4.875 C-0.92132813 3.96492187 -0.71765625 3.05484375 -0.5078125 2.1171875 C-0.34023437 1.41851562 -0.17265625 0.71984375 0 0 Z " fill="#204B1D" transform="translate(117,2)"/>
<path d="M0 0 C2.475 0.99 2.475 0.99 5 2 C3.68 2.33 2.36 2.66 1 3 C0.67 4.98 0.34 6.96 0 9 C-0.33 9 -0.66 9 -1 9 C-0.67 6.03 -0.34 3.06 0 0 Z " fill="#69B15F" transform="translate(30,128)"/>
<path d="M0 0 C-0.33 0.66 -0.66 1.32 -1 2 C-4.96 1.67 -8.92 1.34 -13 1 C-13 0.67 -13 0.34 -13 0 C-11.58456585 -0.19658808 -10.16755969 -0.38187546 -8.75 -0.5625 C-7.96109375 -0.66691406 -7.1721875 -0.77132812 -6.359375 -0.87890625 C-3.99467126 -1.00027349 -2.2488963 -0.69633257 0 0 Z " fill="#0A3306" transform="translate(78,78)"/>
<path d="M0 0 C0.33 0.66 0.66 1.32 1 2 C1.66 2 2.32 2 3 2 C3.33 3.32 3.66 4.64 4 6 C2.02 6 0.04 6 -2 6 C-1.34 4.02 -0.68 2.04 0 0 Z " fill="#6EEA5D" transform="translate(51,39)"/>
<path d="M0 0 C0.99 0.66 1.98 1.32 3 2 C2.360625 2.556875 1.72125 3.11375 1.0625 3.6875 C-1.19680987 6.22066561 -1.63149047 7.68341424 -2 11 C-2.33 11 -2.66 11 -3 11 C-3.32613618 6.32538149 -2.70582788 3.83325617 0 0 Z " fill="#231E21" transform="translate(29,2)"/>
<path d="M0 0 C0.99 0 1.98 0 3 0 C3 0.99 3 1.98 3 3 C4.32 3.33 5.64 3.66 7 4 C6.01 4.66 5.02 5.32 4 6 C2.62437146 4.71034824 1.29233607 3.37310707 0 2 C0 1.34 0 0.68 0 0 Z " fill="#75E367" transform="translate(81,114)"/>
<path d="M0 0 C0 0.66 0 1.32 0 2 C-2.97 1.67 -5.94 1.34 -9 1 C-9 0.67 -9 0.34 -9 0 C-5.62182575 -0.84454356 -3.32534757 -1.10844919 0 0 Z " fill="#092506" transform="translate(102,98)"/>
<path d="M0 0 C0.33 1.32 0.66 2.64 1 4 C-0.32 4.33 -1.64 4.66 -3 5 C-3.33 3.68 -3.66 2.36 -4 1 C-2.68 0.67 -1.36 0.34 0 0 Z " fill="#8DB887" transform="translate(72,93)"/>
<path d="M0 0 C5.75 -0.125 5.75 -0.125 8 1 C8 1.99 8 2.98 8 4 C5.0280615 2.87548273 2.66559313 1.77706209 0 0 Z " fill="#051704" transform="translate(100,79)"/>
<path d="M0 0 C-0.33 0.99 -0.66 1.98 -1 3 C-2.32 3 -3.64 3 -5 3 C-5 3.66 -5 4.32 -5 5 C-7 4 -7 4 -8 2 C-4.77208445 -0.1519437 -3.71599191 -0.20086443 0 0 Z " fill="#102A10" transform="translate(104,78)"/>
<path d="M0 0 C0.33 0 0.66 0 1 0 C1.06058594 0.61488281 1.12117188 1.22976562 1.18359375 1.86328125 C1.26738281 2.67152344 1.35117187 3.47976562 1.4375 4.3125 C1.51871094 5.11300781 1.59992187 5.91351563 1.68359375 6.73828125 C1.95265693 9.16087179 1.95265693 9.16087179 3 12 C2.01 12 1.02 12 0 12 C0 8.04 0 4.08 0 0 Z " fill="#6CDA5B" transform="translate(41,34)"/>
</svg>
