<?xml version="1.0" encoding="UTF-8"?>
<svg version="1.1" xmlns="http://www.w3.org/2000/svg" width="997" height="1471">
<path d="M0 0 C1.03996124 -0.00974854 2.07992249 -0.01949707 3.15139771 -0.02954102 C27.95145719 -0.21387497 52.19821105 0.3986652 76.71875 4.23828125 C77.88857422 4.4202002 79.05839844 4.60211914 80.26367188 4.78955078 C155.96155762 17.03737238 229.67360661 51.35764592 285.95703125 103.69921875 C288.12844255 105.69556577 290.32741006 107.60369154 292.59375 109.48828125 C337.5346876 148.74167281 358.09465593 208.26860085 362.53347778 266.24215698 C363.13801387 276.01839466 363.06300631 285.82257406 363.03125 295.61328125 C363.02909485 296.81681244 363.0269397 298.02034363 363.02471924 299.26034546 C362.97361251 317.16557363 362.53643204 334.96013389 360.7824707 352.78417969 C360.70188101 353.60339747 360.62129131 354.42261526 360.53825951 355.26665783 C359.500339 365.63269219 358.28141082 375.97708776 357.0390625 386.3203125 C356.84642822 387.92860365 356.84642822 387.92860365 356.64990234 389.56938553 C353.95054562 412.01857724 350.83269846 434.40109268 347.62442017 456.7822876 C342.45433205 492.87484327 337.36513455 528.95434704 333.71875 565.23828125 C333.63792175 566.02968506 333.55709351 566.82108887 333.47381592 567.63647461 C332.39930029 578.16022221 331.47991844 588.68736904 330.71875 599.23828125 C330.66761047 599.92688232 330.61647095 600.6154834 330.56378174 601.32495117 C327.47576414 643.05699472 326.95481742 685.53840859 330.71875 727.23828125 C330.78191406 727.94053833 330.84507812 728.64279541 330.91015625 729.36633301 C334.00999306 763.43224799 339.5531543 797.02082146 347.71875 830.23828125 C347.98236328 831.32125488 348.24597656 832.40422852 348.51757812 833.52001953 C363.99695197 896.28131537 390.93290558 956.27635603 424.71875 1011.23828125 C425.53835205 1012.57536133 425.53835205 1012.57536133 426.37451172 1013.93945312 C433.7753711 1025.96440096 441.59518589 1037.69046587 449.71875 1049.23828125 C450.59781006 1050.49366699 450.59781006 1050.49366699 451.49462891 1051.77441406 C453.28341755 1054.31518063 455.09129527 1056.84115606 456.90625 1059.36328125 C457.43976074 1060.12060547 457.97327148 1060.87792969 458.52294922 1061.65820312 C461.47292463 1065.70337364 464.56843396 1069.12118603 468.34082031 1072.41992188 C473.51418773 1077.01771812 478.4511853 1081.80941738 483.34765625 1086.69921875 C484.22219955 1087.57043365 485.09674286 1088.44164856 485.99778748 1089.33926392 C487.83177783 1091.16822969 489.66445072 1092.99851744 491.49584961 1094.83007812 C494.27241487 1097.60445309 497.05689346 1100.37071684 499.84179688 1103.13671875 C501.6359069 1104.92789452 503.42954255 1106.71954559 505.22265625 1108.51171875 C506.04165909 1109.32353607 506.86066193 1110.13535339 507.70448303 1110.97177124 C513.4609677 1116.75073428 518.62363643 1122.8743008 523.71875 1129.23828125 C524.62870291 1130.31301226 525.54407165 1131.38322446 526.46875 1132.4453125 C536.75598867 1144.357792 547.51162769 1158.44278478 549.03125 1174.55078125 C548.54672233 1180.26820777 546.46220538 1184.39519985 542.53125 1188.55078125 C525.30191282 1198.88838356 500.42915568 1194.92786665 481.87451172 1190.5703125 C444.25678325 1181.12684489 405.55975973 1160.83563468 382.96875 1128.17578125 C360.17629862 1089.73068254 351.42351281 1038.87974011 339.5625 996.18359375 C339.29614872 995.22546028 339.02979744 994.26732681 338.75537491 993.280159 C336.07018876 983.61926388 333.39165966 973.95662652 330.73788834 964.28705025 C329.73278933 960.62942855 328.72198551 956.97339731 327.71018982 953.31762314 C327.24098577 951.61674473 326.77439089 949.91514383 326.31074524 948.21274185 C324.03475738 939.85783527 321.62714266 931.61138738 318.60009766 923.49365234 C318.36258978 922.85647089 318.1250819 922.21928944 317.88037682 921.56279945 C313.43340669 909.99818887 307.62574263 900.32275926 296.21875 894.80078125 C283.72296468 890.36679291 270.42963914 893.26107266 258.75 898.59375 C247.87095304 904.16776719 239.85934901 911.31947078 235.71875 923.078125 C220.05958627 977.9604825 247.39228753 1050.34049627 259.33814335 1104.44888306 C261.23461094 1113.03969436 263.12585688 1121.63164544 265.01572514 1130.22391009 C268.33565201 1145.31714213 271.66391919 1160.40851508 275.00128937 1175.49790001 C275.36031715 1177.12119903 275.71934374 1178.74449831 276.07836914 1180.36779785 C276.34448258 1181.57095231 276.34448258 1181.57095231 276.61597204 1182.79841292 C277.85146692 1188.38579718 279.08350495 1193.9739367 280.31420898 1199.56237793 C287.26450169 1231.11341459 294.22727766 1262.61165269 302.78076172 1293.77603149 C304.85934652 1301.44838719 306.70071744 1309.17673082 308.46875 1316.92578125 C308.64785919 1317.70517059 308.82696838 1318.48455994 309.01150513 1319.28756714 C329.31780683 1408.08260498 329.31780683 1408.08260498 314.71875 1432.23828125 C311.61737834 1436.95495065 308.44750403 1440.14055275 302.96875 1441.80078125 C286.65997789 1444.97193138 270.84389355 1436.61584657 257.59375 1427.82910156 C248.32030781 1421.37142936 239.80660992 1414.12230461 231.71875 1406.23828125 C230.71811523 1405.26834229 230.71811523 1405.26834229 229.69726562 1404.27880859 C221.18971095 1396.00165099 212.87347712 1387.73742659 205.71875 1378.23828125 C204.93636963 1377.21395996 204.93636963 1377.21395996 204.13818359 1376.16894531 C196.30941631 1365.89791692 188.95178811 1355.55522123 182.71875 1344.23828125 C182.25758789 1343.40876953 181.79642578 1342.57925781 181.32128906 1341.72460938 C162.67325754 1307.92277735 151.49157389 1272.31654423 151.53125 1233.55078125 C151.5305249 1232.82185669 151.5297998 1232.09293213 151.52905273 1231.34191895 C151.53003626 1222.33630799 151.78326346 1213.45336057 152.71875 1204.48828125 C153.63022356 1195.66881177 153.97287044 1186.91773757 154.03125 1178.05078125 C154.04865234 1176.85678711 154.06605469 1175.66279297 154.08398438 1174.43261719 C154.07455943 1157.60437402 148.70339284 1143.63205811 136.9453125 1131.44140625 C136.21054687 1130.714375 135.47578125 1129.98734375 134.71875 1129.23828125 C134.12835937 1128.614375 133.53796875 1127.99046875 132.9296875 1127.34765625 C119.76960493 1114.47744334 98.84300164 1109.68361808 81.62670898 1105.02416992 C67.50360679 1101.18043411 53.66056586 1096.32807046 42.71875 1086.23828125 C42.0484375 1085.65820312 41.378125 1085.078125 40.6875 1084.48046875 C26.81256488 1071.72620146 20.97564223 1053.62267507 19.71875 1035.23828125 C19.50550848 1028.08162078 19.836544 1021.09038885 20.71875 1013.98828125 C20.89917847 1012.50739014 20.89917847 1012.50739014 21.08325195 1010.99658203 C22.00529661 1004.09388847 23.26866182 997.30890461 24.69921875 990.49609375 C24.87808624 989.64329834 25.05695374 988.79050293 25.24124146 987.91186523 C26.14335292 983.64182087 27.06921129 979.37837256 28.02539062 975.12011719 C31.66520366 959.14807006 31.66520366 959.14807006 29.71875 943.11328125 C26.94179644 939.12141051 24.41320386 937.47443838 19.71875 936.23828125 C-1.84834313 933.76059953 -23.47342129 945.55483785 -39.84375 958.55078125 C-71.76766788 985.44124048 -90.09335249 1023.60325312 -94.16162109 1064.70581055 C-94.40567761 1067.17000198 -94.66083435 1069.63284531 -94.91796875 1072.09570312 C-96.50076513 1087.44657951 -97.51907543 1102.73925222 -97.53125 1118.17578125 C-97.53192474 1118.96218994 -97.53259949 1119.74859863 -97.53329468 1120.55883789 C-97.47317293 1165.61306405 -90.81537643 1210.10069892 -82.28125 1254.23828125 C-82.09236206 1255.21665955 -81.90347412 1256.19503784 -81.7088623 1257.20306396 C-76.59044885 1283.63168349 -71.04891399 1309.95906816 -65.19921875 1336.234375 C-64.86611663 1337.73083022 -64.86611663 1337.73083022 -64.52628517 1339.25751686 C-62.29328968 1349.28272969 -60.05013447 1359.30559294 -57.78719234 1369.32409 C-40.90765077 1444.08281504 -40.90765077 1444.08281504 -49.84375 1459.05078125 C-54.81034048 1465.81018976 -61.18577313 1469.38429121 -69.28125 1471.23828125 C-81.65394121 1472.55197552 -93.47041086 1470.88636293 -105.28125 1467.23828125 C-105.96848145 1467.02929199 -106.65571289 1466.82030273 -107.36376953 1466.60498047 C-117.63377331 1463.38278187 -125.74958699 1458.8801588 -134.28125 1452.23828125 C-135.68117188 1451.15353516 -135.68117188 1451.15353516 -137.109375 1450.046875 C-173.15367204 1421.26292922 -194.96828739 1384.3609567 -200.28125 1338.23828125 C-201.05690475 1330.98267549 -201.45059591 1323.80333608 -201.484375 1316.5078125 C-201.49007507 1315.51488693 -201.49577515 1314.52196136 -201.50164795 1313.49894714 C-201.51103135 1311.40564006 -201.51760515 1309.31231866 -201.52148438 1307.21899414 C-201.53108782 1304.10339589 -201.56213369 1300.98848816 -201.59375 1297.87304688 C-201.74332488 1271.61446096 -196.80864676 1246.39451978 -191.95864868 1220.70019531 C-190.14177302 1211.06904355 -188.35971348 1201.43142072 -186.58203125 1191.79296875 C-186.31056432 1190.32157566 -186.31056432 1190.32157566 -186.0336132 1188.82045746 C-182.34484707 1168.79884855 -178.85555424 1148.74647776 -175.50041962 1128.66641998 C-175.10307422 1126.29395418 -174.7026781 1123.92202365 -174.30133057 1121.55023193 C-154.83176495 1018.69863646 -154.83176495 1018.69863646 -183.28125 921.23828125 C-187.94966912 915.24177738 -192.51746719 909.64576253 -200.03125 907.42578125 C-211.2400172 906.7791216 -220.66006049 912.86385426 -228.83886719 920.05004883 C-231.38745116 922.37991104 -233.84999683 924.786659 -236.28125 927.23828125 C-236.74917969 927.7089502 -237.21710938 928.17961914 -237.69921875 928.66455078 C-268.09741579 959.64814727 -277.87396761 995.74658219 -283.21875 1037.67578125 C-288.29938628 1077.52576186 -298.44842313 1111.46407854 -326.91308594 1140.81884766 C-328.10899879 1142.05957523 -329.27943703 1143.32475558 -330.4453125 1144.59375 C-351.53770965 1166.94843346 -387.99771442 1188.91272224 -419.25390625 1190.5546875 C-421.03357782 1190.60580503 -422.81359078 1190.64616617 -424.59375 1190.67578125 C-425.4300293 1190.69817871 -426.26630859 1190.72057617 -427.12792969 1190.74365234 C-434.55137274 1190.71558919 -439.69595023 1188.54854913 -445.21875 1183.61328125 C-448.56228405 1178.14204371 -448.89109315 1173.4992481 -447.71875 1167.23046875 C-442.02193665 1146.52865596 -427.50698196 1128.19261829 -415.89331055 1110.49072266 C-398.2009115 1083.52009346 -381.82948018 1056.0438756 -367.28125 1027.23828125 C-366.81477051 1026.31611816 -366.34829102 1025.39395508 -365.86767578 1024.44384766 C-326.67129704 946.33919795 -311.60831029 858.11334873 -337.2265625 502.45703125 C-340.23027203 481.16434492 -342.99006026 459.88457508 -345.15625 438.48828125 C-345.25997925 437.46466492 -345.3637085 436.44104858 -345.47058105 435.38641357 C-347.0979256 419.18173374 -348.31219392 403.02074084 -348.84375 386.73828125 C-348.8854834 385.46218994 -348.9272168 384.18609863 -348.97021484 382.87133789 C-349.23825082 374.31989624 -349.47847021 365.79342611 -349.28125 357.23828125 C-349.25442139 355.8605957 -349.25442139 355.8605957 -349.22705078 354.45507812 C-348.41398752 316.3063873 -345.86786594 276.06753814 -335.28125 239.23828125 C-335.09095215 238.57070801 -334.9006543 237.90313477 -334.70458984 237.21533203 C-331.56192173 226.46865011 -327.03246258 216.34764358 -322.28125 206.23828125 C-321.9193457 205.45855957 -321.55744141 204.67883789 -321.18457031 203.87548828 C-311.65608295 183.49488056 -299.73943791 164.48743099 -285.65478516 146.94970703 C-284.42698812 145.41987105 -283.21803747 143.87495365 -282.01171875 142.328125 C-278.0866681 137.31923394 -273.94838923 132.54944661 -269.65234375 127.85546875 C-267.73564278 125.73983506 -265.86447611 123.5986033 -264 121.4375 C-260.28041438 117.17770903 -256.35299503 113.1618291 -252.34375 109.17578125 C-251.67923828 108.50740234 -251.01472656 107.83902344 -250.33007812 107.15039062 C-245.81206088 102.64113772 -241.12419146 98.39438007 -236.28125 94.23828125 C-235.30542969 93.38105469 -234.32960937 92.52382812 -233.32421875 91.640625 C-170.09913968 37.06466756 -84.14039129 0.66290453 0 0 Z " fill="#00FE3F" transform="translate(448.28125,-0.23828125)"/>
<path d="M0 0 C1.03996124 -0.00974854 2.07992249 -0.01949707 3.15139771 -0.02954102 C27.95145719 -0.21387497 52.19821105 0.3986652 76.71875 4.23828125 C77.88857422 4.4202002 79.05839844 4.60211914 80.26367188 4.78955078 C155.96155762 17.03737238 229.67360661 51.35764592 285.95703125 103.69921875 C288.12844255 105.69556577 290.32741006 107.60369154 292.59375 109.48828125 C337.5346876 148.74167281 358.09465593 208.26860085 362.53347778 266.24215698 C363.13801387 276.01839466 363.06300631 285.82257406 363.03125 295.61328125 C363.02909485 296.81681244 363.0269397 298.02034363 363.02471924 299.26034546 C362.97361251 317.16557363 362.53643204 334.96013389 360.7824707 352.78417969 C360.70188101 353.60339747 360.62129131 354.42261526 360.53825951 355.26665783 C359.500339 365.63269219 358.28141082 375.97708776 357.0390625 386.3203125 C356.84642822 387.92860365 356.84642822 387.92860365 356.64990234 389.56938553 C353.95054562 412.01857724 350.83269846 434.40109268 347.62442017 456.7822876 C342.45433205 492.87484327 337.36513455 528.95434704 333.71875 565.23828125 C333.63792175 566.02968506 333.55709351 566.82108887 333.47381592 567.63647461 C332.39930029 578.16022221 331.47991844 588.68736904 330.71875 599.23828125 C330.66761047 599.92688232 330.61647095 600.6154834 330.56378174 601.32495117 C327.47576414 643.05699472 326.95481742 685.53840859 330.71875 727.23828125 C330.78191406 727.94053833 330.84507812 728.64279541 330.91015625 729.36633301 C334.00999306 763.43224799 339.5531543 797.02082146 347.71875 830.23828125 C347.98236328 831.32125488 348.24597656 832.40422852 348.51757812 833.52001953 C363.99695197 896.28131537 390.93290558 956.27635603 424.71875 1011.23828125 C425.53835205 1012.57536133 425.53835205 1012.57536133 426.37451172 1013.93945312 C433.7753711 1025.96440096 441.59518589 1037.69046587 449.71875 1049.23828125 C450.59781006 1050.49366699 450.59781006 1050.49366699 451.49462891 1051.77441406 C453.28341755 1054.31518063 455.09129527 1056.84115606 456.90625 1059.36328125 C457.43976074 1060.12060547 457.97327148 1060.87792969 458.52294922 1061.65820312 C461.47292463 1065.70337364 464.56843396 1069.12118603 468.34082031 1072.41992188 C473.51418773 1077.01771812 478.4511853 1081.80941738 483.34765625 1086.69921875 C484.22219955 1087.57043365 485.09674286 1088.44164856 485.99778748 1089.33926392 C487.83177783 1091.16822969 489.66445072 1092.99851744 491.49584961 1094.83007812 C494.27241487 1097.60445309 497.05689346 1100.37071684 499.84179688 1103.13671875 C501.6359069 1104.92789452 503.42954255 1106.71954559 505.22265625 1108.51171875 C506.04165909 1109.32353607 506.86066193 1110.13535339 507.70448303 1110.97177124 C513.4609677 1116.75073428 518.62363643 1122.8743008 523.71875 1129.23828125 C524.62870291 1130.31301226 525.54407165 1131.38322446 526.46875 1132.4453125 C536.75598867 1144.357792 547.51162769 1158.44278478 549.03125 1174.55078125 C548.54672233 1180.26820777 546.46220538 1184.39519985 542.53125 1188.55078125 C525.30191282 1198.88838356 500.42915568 1194.92786665 481.87451172 1190.5703125 C444.25678325 1181.12684489 405.55975973 1160.83563468 382.96875 1128.17578125 C360.17629862 1089.73068254 351.42351281 1038.87974011 339.5625 996.18359375 C339.29614872 995.22546028 339.02979744 994.26732681 338.75537491 993.280159 C336.07018876 983.61926388 333.39165966 973.95662652 330.73788834 964.28705025 C329.73278933 960.62942855 328.72198551 956.97339731 327.71018982 953.31762314 C327.24098577 951.61674473 326.77439089 949.91514383 326.31074524 948.21274185 C324.03475738 939.85783527 321.62714266 931.61138738 318.60009766 923.49365234 C318.36258978 922.85647089 318.1250819 922.21928944 317.88037682 921.56279945 C313.43340669 909.99818887 307.62574263 900.32275926 296.21875 894.80078125 C283.72296468 890.36679291 270.42963914 893.26107266 258.75 898.59375 C247.87095304 904.16776719 239.85934901 911.31947078 235.71875 923.078125 C220.05958627 977.9604825 247.39228753 1050.34049627 259.33814335 1104.44888306 C261.23461094 1113.03969436 263.12585688 1121.63164544 265.01572514 1130.22391009 C268.33565201 1145.31714213 271.66391919 1160.40851508 275.00128937 1175.49790001 C275.36031715 1177.12119903 275.71934374 1178.74449831 276.07836914 1180.36779785 C276.34448258 1181.57095231 276.34448258 1181.57095231 276.61597204 1182.79841292 C277.85146692 1188.38579718 279.08350495 1193.9739367 280.31420898 1199.56237793 C287.26450169 1231.11341459 294.22727766 1262.61165269 302.78076172 1293.77603149 C304.85934652 1301.44838719 306.70071744 1309.17673082 308.46875 1316.92578125 C308.64785919 1317.70517059 308.82696838 1318.48455994 309.01150513 1319.28756714 C329.31780683 1408.08260498 329.31780683 1408.08260498 314.71875 1432.23828125 C311.61737834 1436.95495065 308.44750403 1440.14055275 302.96875 1441.80078125 C286.65997789 1444.97193138 270.84389355 1436.61584657 257.59375 1427.82910156 C248.32030781 1421.37142936 239.80660992 1414.12230461 231.71875 1406.23828125 C230.71811523 1405.26834229 230.71811523 1405.26834229 229.69726562 1404.27880859 C221.18971095 1396.00165099 212.87347712 1387.73742659 205.71875 1378.23828125 C204.93636963 1377.21395996 204.93636963 1377.21395996 204.13818359 1376.16894531 C196.30941631 1365.89791692 188.95178811 1355.55522123 182.71875 1344.23828125 C182.25758789 1343.40876953 181.79642578 1342.57925781 181.32128906 1341.72460938 C162.67325754 1307.92277735 151.49157389 1272.31654423 151.53125 1233.55078125 C151.5305249 1232.82185669 151.5297998 1232.09293213 151.52905273 1231.34191895 C151.53003626 1222.33630799 151.78326346 1213.45336057 152.71875 1204.48828125 C153.63022356 1195.66881177 153.97287044 1186.91773757 154.03125 1178.05078125 C154.04865234 1176.85678711 154.06605469 1175.66279297 154.08398438 1174.43261719 C154.07455943 1157.60437402 148.70339284 1143.63205811 136.9453125 1131.44140625 C136.21054687 1130.714375 135.47578125 1129.98734375 134.71875 1129.23828125 C134.12835937 1128.614375 133.53796875 1127.99046875 132.9296875 1127.34765625 C119.76960493 1114.47744334 98.84300164 1109.68361808 81.62670898 1105.02416992 C67.50360679 1101.18043411 53.66056586 1096.32807046 42.71875 1086.23828125 C42.0484375 1085.65820312 41.378125 1085.078125 40.6875 1084.48046875 C26.81256488 1071.72620146 20.97564223 1053.62267507 19.71875 1035.23828125 C19.50550848 1028.08162078 19.836544 1021.09038885 20.71875 1013.98828125 C20.89917847 1012.50739014 20.89917847 1012.50739014 21.08325195 1010.99658203 C22.00529661 1004.09388847 23.26866182 997.30890461 24.69921875 990.49609375 C24.87808624 989.64329834 25.05695374 988.79050293 25.24124146 987.91186523 C26.14335292 983.64182087 27.06921129 979.37837256 28.02539062 975.12011719 C31.66520366 959.14807006 31.66520366 959.14807006 29.71875 943.11328125 C26.94179644 939.12141051 24.41320386 937.47443838 19.71875 936.23828125 C-1.84834313 933.76059953 -23.47342129 945.55483785 -39.84375 958.55078125 C-71.76766788 985.44124048 -90.09335249 1023.60325312 -94.16162109 1064.70581055 C-94.40567761 1067.17000198 -94.66083435 1069.63284531 -94.91796875 1072.09570312 C-96.50076513 1087.44657951 -97.51907543 1102.73925222 -97.53125 1118.17578125 C-97.53192474 1118.96218994 -97.53259949 1119.74859863 -97.53329468 1120.55883789 C-97.47317293 1165.61306405 -90.81537643 1210.10069892 -82.28125 1254.23828125 C-82.09236206 1255.21665955 -81.90347412 1256.19503784 -81.7088623 1257.20306396 C-76.59044885 1283.63168349 -71.04891399 1309.95906816 -65.19921875 1336.234375 C-64.86611663 1337.73083022 -64.86611663 1337.73083022 -64.52628517 1339.25751686 C-62.29328968 1349.28272969 -60.05013447 1359.30559294 -57.78719234 1369.32409 C-40.90765077 1444.08281504 -40.90765077 1444.08281504 -49.84375 1459.05078125 C-54.81034048 1465.81018976 -61.18577313 1469.38429121 -69.28125 1471.23828125 C-81.65394121 1472.55197552 -93.47041086 1470.88636293 -105.28125 1467.23828125 C-105.96848145 1467.02929199 -106.65571289 1466.82030273 -107.36376953 1466.60498047 C-117.63377331 1463.38278187 -125.74958699 1458.8801588 -134.28125 1452.23828125 C-135.68117188 1451.15353516 -135.68117188 1451.15353516 -137.109375 1450.046875 C-173.15367204 1421.26292922 -194.96828739 1384.3609567 -200.28125 1338.23828125 C-201.05690475 1330.98267549 -201.45059591 1323.80333608 -201.484375 1316.5078125 C-201.49007507 1315.51488693 -201.49577515 1314.52196136 -201.50164795 1313.49894714 C-201.51103135 1311.40564006 -201.51760515 1309.31231866 -201.52148438 1307.21899414 C-201.53108782 1304.10339589 -201.56213369 1300.98848816 -201.59375 1297.87304688 C-201.74332488 1271.61446096 -196.80864676 1246.39451978 -191.95864868 1220.70019531 C-190.14177302 1211.06904355 -188.35971348 1201.43142072 -186.58203125 1191.79296875 C-186.31056432 1190.32157566 -186.31056432 1190.32157566 -186.0336132 1188.82045746 C-182.34484707 1168.79884855 -178.85555424 1148.74647776 -175.50041962 1128.66641998 C-175.10307422 1126.29395418 -174.7026781 1123.92202365 -174.30133057 1121.55023193 C-154.83176495 1018.69863646 -154.83176495 1018.69863646 -183.28125 921.23828125 C-187.94966912 915.24177738 -192.51746719 909.64576253 -200.03125 907.42578125 C-211.2400172 906.7791216 -220.66006049 912.86385426 -228.83886719 920.05004883 C-231.38745116 922.37991104 -233.84999683 924.786659 -236.28125 927.23828125 C-236.74917969 927.7089502 -237.21710938 928.17961914 -237.69921875 928.66455078 C-268.09741579 959.64814727 -277.87396761 995.74658219 -283.21875 1037.67578125 C-288.29938628 1077.52576186 -298.44842313 1111.46407854 -326.91308594 1140.81884766 C-328.10899879 1142.05957523 -329.27943703 1143.32475558 -330.4453125 1144.59375 C-351.53770965 1166.94843346 -387.99771442 1188.91272224 -419.25390625 1190.5546875 C-421.03357782 1190.60580503 -422.81359078 1190.64616617 -424.59375 1190.67578125 C-425.4300293 1190.69817871 -426.26630859 1190.72057617 -427.12792969 1190.74365234 C-434.55137274 1190.71558919 -439.69595023 1188.54854913 -445.21875 1183.61328125 C-448.56228405 1178.14204371 -448.89109315 1173.4992481 -447.71875 1167.23046875 C-442.02193665 1146.52865596 -427.50698196 1128.19261829 -415.89331055 1110.49072266 C-398.2009115 1083.52009346 -381.82948018 1056.0438756 -367.28125 1027.23828125 C-366.81477051 1026.31611816 -366.34829102 1025.39395508 -365.86767578 1024.44384766 C-326.67129704 946.33919795 -311.60831029 858.11334873 -337.2265625 502.45703125 C-340.23027203 481.16434492 -342.99006026 459.88457508 -345.15625 438.48828125 C-345.25997925 437.46466492 -345.3637085 436.44104858 -345.47058105 435.38641357 C-347.0979256 419.18173374 -348.31219392 403.02074084 -348.84375 386.73828125 C-348.8854834 385.46218994 -348.9272168 384.18609863 -348.97021484 382.87133789 C-349.23825082 374.31989624 -349.47847021 365.79342611 -349.28125 357.23828125 C-349.25442139 355.8605957 -349.25442139 355.8605957 -349.22705078 354.45507812 C-348.41398752 316.3063873 -345.86786594 276.06753814 -335.28125 239.23828125 C-335.09095215 238.57070801 -334.9006543 237.90313477 -334.70458984 237.21533203 C-331.56192173 226.46865011 -327.03246258 216.34764358 -322.28125 206.23828125 C-321.9193457 205.45855957 -321.55744141 204.67883789 -321.18457031 203.87548828 C-311.65608295 183.49488056 -299.73943791 164.48743099 -285.65478516 146.94970703 C-284.42698812 145.41987105 -283.21803747 143.87495365 -282.01171875 142.328125 C-278.0866681 137.31923394 -273.94838923 132.54944661 -269.65234375 127.85546875 C-267.73564278 125.73983506 -265.86447611 123.5986033 -264 121.4375 C-260.28041438 117.17770903 -256.35299503 113.1618291 -252.34375 109.17578125 C-251.67923828 108.50740234 -251.01472656 107.83902344 -250.33007812 107.15039062 C-245.81206088 102.64113772 -241.12419146 98.39438007 -236.28125 94.23828125 C-235.30542969 93.38105469 -234.32960937 92.52382812 -233.32421875 91.640625 C-170.09913968 37.06466756 -84.14039129 0.66290453 0 0 Z M-38.28125 16.23828125 C-39.99974785 16.47062267 -41.71848902 16.70117346 -43.4375 16.9296875 C-122.46320133 27.91076889 -194.09345045 70.3845349 -250.03125 125.80078125 C-250.9068457 126.66324463 -251.78244141 127.52570801 -252.68457031 128.41430664 C-258.65241385 134.37481174 -264.03479186 140.63919082 -269.28125 147.23828125 C-270.32964164 148.51628694 -271.38012376 149.79258344 -272.43359375 151.06640625 C-279.28682292 159.44882879 -285.50159833 168.08412931 -291.28125 177.23828125 C-291.64782715 177.81449219 -292.0144043 178.39070312 -292.39208984 178.984375 C-313.29614692 212.0707426 -325.74130335 245.56959324 -330.84375 284.23828125 C-331.0057489 285.45649063 -331.0057489 285.45649063 -331.17102051 286.6993103 C-335.7770368 321.47064362 -337.08554695 356.19571044 -335.59155273 391.24487305 C-335.47144094 394.11155708 -335.36344345 396.97852571 -335.25585938 399.84570312 C-334.16735691 426.82872145 -330.88576187 453.54897319 -327.20171738 480.2766037 C-326.6956819 483.95741642 -326.19659732 487.63917298 -325.6965332 491.32080078 C-324.56678127 499.62782647 -323.42545781 507.93323613 -322.28125 516.23828125 C-322.00144924 518.27262155 -321.72166244 520.30696377 -321.44189453 522.34130859 C-319.74326986 534.68035218 -318.0250229 547.01656429 -316.26953125 559.34765625 C-313.38360925 579.75048662 -310.94627627 600.20107969 -308.57873535 620.66955566 C-308.29306005 623.13630384 -308.0056344 625.60284199 -307.71777344 628.06933594 C-305.82120746 644.35712122 -304.07618721 660.6515324 -302.65625 676.98828125 C-302.54522949 678.2508374 -302.43420898 679.51339355 -302.31982422 680.81420898 C-302.02147003 684.37333878 -301.74427478 687.93271807 -301.48364258 691.49475098 C-301.33690051 693.48391139 -301.18540462 695.47272296 -301.03100586 697.46130371 C-299.39115412 718.89671949 -298.96416339 740.22884507 -299.02050781 761.72119141 C-299.0319369 766.1196567 -299.02509512 770.51788075 -299.01362419 774.91633797 C-298.86963309 840.09081327 -307.18798703 905.37262107 -328.28125 967.23828125 C-328.61850098 968.23859375 -328.95575195 969.23890625 -329.30322266 970.26953125 C-342.34692717 1008.70110106 -360.18402858 1045.60131137 -381.28125 1080.23828125 C-382.54561862 1082.33851415 -383.80994021 1084.43877537 -385.07421875 1086.5390625 C-391.90198971 1097.81082915 -398.97919835 1108.87593291 -406.34375 1119.80078125 C-412.29860179 1128.64085158 -418.07419295 1137.55576623 -423.59375 1146.67578125 C-424.19775635 1147.66328369 -424.8017627 1148.65078613 -425.42407227 1149.66821289 C-433.11837628 1161.67743216 -433.11837628 1161.67743216 -435.28125 1175.23828125 C-428.86395533 1179.5164777 -418.32311622 1177.92863256 -410.96484375 1176.50390625 C-372.39209589 1167.52747113 -337.40919713 1139.15028183 -316.13476562 1106.47753906 C-301.13125137 1082.33602491 -297.61755084 1053.18395695 -294.84375 1025.48828125 C-290.94458031 986.89613591 -277.49626592 954.59939039 -252.28125 925.23828125 C-251.45109375 924.26117187 -250.6209375 923.2840625 -249.765625 922.27734375 C-239.05886823 909.960608 -224.53033959 896.33657934 -207.55859375 894.9296875 C-196.61623698 894.48259675 -189.32449894 895.83793113 -180.89453125 903.37109375 C-162.05805313 922.75123932 -153.68279199 953.11173163 -150.28125 979.23828125 C-150.18553711 979.93751709 -150.08982422 980.63675293 -149.99121094 981.35717773 C-148.95713351 990.00877359 -149.03930736 998.7254053 -149.03125 1007.42578125 C-149.02991058 1008.28221222 -149.02857117 1009.13864319 -149.02719116 1010.02102661 C-149.03276776 1026.59062915 -150.26723416 1042.78467781 -152.28125 1059.23828125 C-152.53549691 1061.40881429 -152.78941556 1063.57938581 -153.04296875 1065.75 C-153.7386694 1071.58643647 -154.49910715 1077.41288129 -155.28125 1083.23828125 C-155.39436523 1084.09969727 -155.50748047 1084.96111328 -155.62402344 1085.84863281 C-157.19842508 1097.78214089 -159.20849966 1109.60807073 -161.37451172 1121.44775391 C-162.84549503 1129.56621753 -164.1195486 1137.69529012 -165.28125 1145.86328125 C-166.62906974 1155.24777765 -168.22564684 1164.54049158 -170.07202148 1173.83886719 C-172.69686802 1187.14226695 -175.04497346 1200.49610627 -177.41854858 1213.84622192 C-179.49238669 1225.51009004 -181.60651088 1237.15839176 -183.98048401 1248.76547241 C-185.29978812 1255.22296191 -186.50142808 1261.69086552 -187.28125 1268.23828125 C-187.41152588 1269.33015747 -187.41152588 1269.33015747 -187.54443359 1270.4440918 C-188.56863271 1280.53990019 -188.5030801 1290.67826518 -188.52148438 1300.81518555 C-188.53111279 1304.00531883 -188.56217824 1307.19478485 -188.59375 1310.38476562 C-188.68933394 1328.65003521 -187.60010206 1347.07624402 -182.09375 1364.61328125 C-181.79186768 1365.60384521 -181.48998535 1366.59440918 -181.17895508 1367.61499023 C-171.32550141 1398.83737957 -149.8848871 1425.44025155 -123.28125 1444.23828125 C-122.61641602 1444.7278833 -121.95158203 1445.21748535 -121.26660156 1445.72192383 C-115.64089989 1449.71188481 -110.09772771 1452.02276067 -103.53125 1454.05078125 C-102.61214844 1454.34919922 -101.69304687 1454.64761719 -100.74609375 1454.95507812 C-93.68711728 1457.21783252 -87.35136121 1458.43621754 -79.90625 1458.48828125 C-79.17664063 1458.50890625 -78.44703125 1458.52953125 -77.6953125 1458.55078125 C-71.52495186 1458.59485525 -67.14159914 1457.17094959 -61.96875 1453.67578125 C-57.52029323 1447.25023258 -58.0424695 1438.86989455 -58.90625 1431.42578125 C-59.05501587 1430.05268799 -59.05501587 1430.05268799 -59.20678711 1428.65185547 C-61.26248507 1410.82765501 -65.57231898 1393.45215028 -69.64624023 1376.00805664 C-73.14998099 1360.97666287 -76.40054368 1345.89682428 -79.60498047 1330.79922485 C-79.78818848 1329.93606659 -79.97139648 1329.07290833 -80.16015625 1328.18359375 C-80.3411084 1327.33050629 -80.52206055 1326.47741882 -80.70849609 1325.59848022 C-81.82089041 1320.365899 -82.95726442 1315.13934218 -84.12109375 1309.91796875 C-93.89261417 1266.05758064 -102.3022993 1221.91562148 -107.28125 1177.23828125 C-107.43223145 1175.95550293 -107.58321289 1174.67272461 -107.73876953 1173.35107422 C-111.96273877 1136.97572748 -111.16040655 1100.60366052 -107.28125 1064.23828125 C-107.16378418 1063.05250488 -107.04631836 1061.86672852 -106.92529297 1060.64501953 C-102.86607824 1019.84607093 -84.66886784 983.85254073 -55.28125 955.23828125 C-54.81976563 954.73167969 -54.35828125 954.22507812 -53.8828125 953.703125 C-38.29454563 937.0122734 -12.65364477 924.61236972 10.078125 923 C20.39836134 922.77409621 29.53454785 924.21890728 37.28515625 931.5234375 C44.89036516 940.62067649 44.62295243 952.01454035 43.71875 963.23828125 C42.52987295 971.6588197 40.61446387 979.95366694 38.71875 988.23828125 C38.33463173 989.9270825 37.95051687 991.61588452 37.56640625 993.3046875 C37.39173828 994.07216309 37.21707031 994.83963867 37.03710938 995.63037109 C31.5916385 1019.66718415 28.91107868 1043.77301965 42.0703125 1065.81640625 C53.71124047 1082.91919142 71.66994202 1088.92156206 90.71875 1094.23828125 C119.08092777 1102.23819036 143.38967391 1112.5420548 158.99609375 1139.0078125 C165.44896268 1151.10877079 167.07888233 1163.48582207 166.96875 1177.05078125 C166.96488281 1178.24018311 166.96101562 1179.42958496 166.95703125 1180.6550293 C166.88928491 1187.68041936 166.49808831 1194.5721919 165.71875 1201.55078125 C163.28706611 1224.01011364 162.32872682 1249.18058361 167.71875 1271.23828125 C167.97156738 1272.28032715 168.22438477 1273.32237305 168.48486328 1274.39599609 C172.65830124 1291.07321477 178.24209706 1306.76613825 185.71875 1322.23828125 C186.26136475 1323.37499268 186.26136475 1323.37499268 186.81494141 1324.53466797 C196.70707974 1344.9962359 210.25741865 1364.27359134 225.63671875 1380.97265625 C227.5431544 1383.04720161 229.3864061 1385.16094056 231.21875 1387.30078125 C244.00276018 1401.90270114 259.51404449 1414.4699408 276.59375 1423.73828125 C277.18768555 1424.06449463 277.78162109 1424.39070801 278.39355469 1424.72680664 C285.06331993 1428.21479322 292.20815768 1430.22327696 299.71875 1429.23828125 C305.36754722 1424.46818582 307.23498961 1417.67190828 308.0222168 1410.45703125 C308.15933679 1407.43987695 308.18515987 1404.44593055 308.15625 1401.42578125 C308.15012695 1400.30993652 308.14400391 1399.1940918 308.13769531 1398.04443359 C307.79098812 1378.81285243 304.37025477 1359.68136559 300.29589844 1340.91943359 C299.65050141 1337.92123132 299.03181157 1334.91808027 298.4140625 1331.9140625 C293.98472759 1310.56827529 289.0992671 1289.23742778 282.78125 1268.36328125 C278.89786193 1255.38515377 276.38171986 1242.05044197 273.5947876 1228.80529785 C273.40237488 1227.89115112 273.20996216 1226.97700439 273.01171875 1226.03515625 C272.8191449 1225.12004272 272.62657104 1224.2049292 272.42816162 1223.26208496 C270.59946384 1214.60685277 268.64732149 1205.98239045 266.65625 1197.36328125 C265.99699055 1194.50269746 265.33827355 1191.64198889 264.6796875 1188.78125 C264.517603 1188.07753769 264.35551849 1187.37382538 264.18852234 1186.64878845 C262.35236534 1178.66532571 260.55978991 1170.67225701 258.78125 1162.67578125 C258.61777069 1161.94096527 258.45429138 1161.20614929 258.28585815 1160.44906616 C255.328116 1147.13495885 252.47617396 1133.79881952 249.64123535 1120.45809937 C247.50557648 1110.41434341 245.3122159 1100.39326647 242.95214844 1090.3996582 C238.743414 1072.55897729 235.04743372 1054.61221144 231.41293335 1036.64733887 C230.79532517 1033.59470137 230.17307798 1030.54307614 229.54629517 1027.49230957 C218.78364438 975.02514915 218.78364438 975.02514915 219.28125 950.23828125 C219.29518799 948.99900879 219.30912598 947.75973633 219.32348633 946.48291016 C219.69617748 928.05715693 223.53000563 911.55203952 236.81640625 898.1171875 C250.80591676 885.0652456 267.58892943 879.60851205 286.57421875 879.9609375 C296.43249202 880.41930274 305.10676712 884.06762057 312.71875 890.23828125 C313.32074219 890.71652344 313.92273438 891.19476562 314.54296875 891.6875 C329.82143049 905.31794789 334.74327556 929.10029191 339.82324219 947.94335938 C340.98463225 952.21656557 342.19041407 956.47660605 343.39672852 960.73730469 C345.94780479 969.75303216 348.39623621 978.78605226 350.71875 987.86328125 C352.94643425 996.5514731 355.45575141 1005.1234746 358.11547852 1013.68847656 C360.10652617 1020.12942544 361.92636963 1026.59778946 363.65625 1033.11328125 C366.58171478 1044.02990448 369.96588233 1054.77001635 373.49707031 1065.50439453 C374.63038362 1068.96820222 375.74703161 1072.43685126 376.85922241 1075.9074707 C377.88133431 1079.08742925 378.91525552 1082.26347856 379.95135498 1085.43890381 C380.45299152 1086.98283358 380.95060207 1088.52807878 381.44366455 1090.07476807 C386.00560233 1104.35808522 391.41265355 1119.04272807 401.71875 1130.23828125 C402.15783691 1130.7182959 402.59692383 1131.19831055 403.04931641 1131.69287109 C415.41766832 1145.05529181 429.61091833 1154.88449586 445.71875 1163.23828125 C446.70367432 1163.75817627 446.70367432 1163.75817627 447.70849609 1164.28857422 C468.01380091 1174.89195758 490.71849453 1181.34035714 513.65625 1181.61328125 C514.50848145 1181.62738037 515.36071289 1181.64147949 516.23876953 1181.65600586 C522.79761673 1181.60555319 530.87730422 1181.07972703 535.71875 1176.23828125 C535.13572719 1162.74343623 525.00619544 1151.29347536 516.71875 1141.23828125 C516.27047852 1140.69236328 515.82220703 1140.14644531 515.36035156 1139.58398438 C503.60720588 1125.3674059 490.72927346 1112.17177609 477.71875 1099.11328125 C476.84677979 1098.23663818 475.97480957 1097.35999512 475.07641602 1096.45678711 C470.11767979 1091.51041799 465.03984939 1086.7906751 459.71875 1082.23828125 C451.14615546 1074.67253506 445.07172059 1065.64618796 438.71875 1056.23828125 C437.605 1054.60125244 437.605 1054.60125244 436.46875 1052.93115234 C399.84710887 999.07957403 369.84797343 941.90282773 348.71875 880.23828125 C348.49766571 879.60300507 348.27658142 878.96772888 348.04879761 878.3132019 C343.83965212 866.19714195 340.35315284 853.96931378 337.15625 841.55078125 C336.797659 840.16623749 336.797659 840.16623749 336.43182373 838.75372314 C326.99229716 802.27455097 321.14191976 765.73740644 317.71875 728.23828125 C317.59870605 726.9455127 317.47866211 725.65274414 317.35498047 724.32080078 C312.98691235 674.5274281 315.15770924 623.90942706 319.71875 574.23828125 C319.80080688 573.32874695 319.88286377 572.41921265 319.96740723 571.4821167 C323.19609974 535.75252946 328.45887981 500.25339752 333.40551758 464.73144531 C333.84326954 461.58789171 334.28101319 458.44433696 334.71875 455.30078125 C334.88156275 454.13165947 334.88156275 454.13165947 335.04766464 452.93891907 C341.87979733 404.81859627 341.87979733 404.81859627 347.53125 356.55078125 C347.64331787 355.45362793 347.75538574 354.35647461 347.87084961 353.22607422 C349.52144081 335.97481916 349.90528667 318.74630602 349.90405273 301.42431641 C349.90623822 298.00670888 349.92447381 294.58942586 349.94335938 291.171875 C350.04124807 253.20780179 344.89189824 215.90971493 328.71875 181.23828125 C328.253479 180.21347656 328.253479 180.21347656 327.77880859 179.16796875 C320.63788619 163.519115 311.04616656 149.16902699 299.71875 136.23828125 C299.038125 135.44808594 298.3575 134.65789062 297.65625 133.84375 C288.66878948 123.61720945 279.09636121 113.80674351 268.40234375 105.36328125 C265.59208432 103.13798121 262.87935556 100.81916996 260.15625 98.48828125 C223.87652061 68.31734948 181.03865248 47.61585812 136.71875 32.23828125 C135.47617432 31.80676758 134.23359863 31.37525391 132.95336914 30.93066406 C114.48554287 24.59854098 95.48247775 20.43878161 76.21875 17.42578125 C74.9819751 17.23113281 73.7452002 17.03648438 72.47094727 16.8359375 C53.36568841 13.98788631 34.46609031 12.86202087 15.15625 12.92578125 C14.06367889 12.92693939 12.97110779 12.92809753 11.84542847 12.92929077 C-5.07372911 12.96467325 -21.53370721 13.71366054 -38.28125 16.23828125 Z " fill="#000200" transform="translate(448.28125,-0.23828125)"/>
</svg>
